<?xml version="1.0" encoding="UTF-8"?><svg id="Layer_1" xmlns="http://www.w3.org/2000/svg" width="94" height="52" viewBox="0 0 94 52"><defs><style>.cls-1{fill:#584c46;}</style></defs><path id="Rectangle_73" class="cls-1" d="m6,0h82C91.31,0,94,2.69,94,6h0c0,3.31-2.69,6-6,6H6c-3.31,0-6-2.69-6-6h0C0,2.69,2.69,0,6,0Z"/><path id="Rectangle_74" class="cls-1" d="m6,20h82c3.31,0,6,2.69,6,6h0c0,3.31-2.69,6-6,6H6c-3.31,0-6-2.69-6-6h0c0-3.31,2.69-6,6-6Z"/><path id="Rectangle_75" class="cls-1" d="m6,40h82c3.31,0,6,2.69,6,6h0c0,3.31-2.69,6-6,6H6c-3.31,0-6-2.69-6-6h0c0-3.31,2.69-6,6-6Z"/></svg>