<svg xmlns="http://www.w3.org/2000/svg" width="256" height="256" viewBox="0 0 100 100"><rect width="100" height="100" rx="20" fill="#584c46"></rect><path fill="#fff" d="M32.48 38.37L32.48 38.37Q33.85 38.37 34.79 39.31Q35.73 40.25 35.73 41.68L35.73 41.68L35.73 58.78Q35.73 65.54 31.96 69.34Q28.19 73.14 21.30 73.14L21.30 73.14Q14.48 73.14 10.74 69.34Q7.00 65.54 7.00 58.78L7.00 58.78L7.00 41.68Q7.00 40.25 7.91 39.31Q8.82 38.37 10.25 38.37L10.25 38.37Q11.62 38.37 12.56 39.31Q13.50 40.25 13.50 41.68L13.50 41.68L13.50 58.78Q13.50 63.00 15.48 65.08Q17.47 67.16 21.30 67.16L21.30 67.16Q25.20 67.16 27.22 65.08Q29.23 63.00 29.23 58.78L29.23 58.78L29.23 41.68Q29.23 40.25 30.14 39.31Q31.05 38.37 32.48 38.37ZM48.54 46.56L47.82 46.56Q46.20 46.56 45.32 45.68Q44.44 44.80 44.44 43.18L44.44 43.18L44.44 41.94Q44.44 40.32 45.32 39.41Q46.20 38.50 47.82 38.50L47.82 38.50L48.54 38.50Q50.16 38.50 51.01 39.41Q51.85 40.32 51.85 41.94L51.85 41.94L51.85 43.18Q51.85 44.80 51.01 45.68Q50.16 46.56 48.54 46.56L48.54 46.56ZM48.54 72.56L47.82 72.56Q46.20 72.56 45.32 71.65Q44.44 70.74 44.44 69.11L44.44 69.11L44.44 67.94Q44.44 66.25 45.32 65.37Q46.20 64.50 47.82 64.50L47.82 64.50L48.54 64.50Q50.16 64.50 51.01 65.37Q51.85 66.25 51.85 67.94L51.85 67.94L51.85 69.11Q51.85 70.74 51.01 71.65Q50.16 72.56 48.54 72.56L48.54 72.56ZM89.75 26.86L89.75 26.86Q90.98 26.86 91.99 27.80Q93.00 28.75 93.00 30.18L93.00 30.18Q93.00 30.70 92.84 31.18Q92.67 31.67 92.35 32.19L92.35 32.19L77.46 53.25L78.50 49.42L78.50 69.24Q78.50 70.67 77.53 71.61Q76.55 72.56 75.32 72.56L75.32 72.56Q73.95 72.56 73.01 71.61Q72.07 70.67 72.07 69.24L72.07 69.24L72.07 49.94L72.52 51.82L58.16 32.65Q57.64 31.93 57.44 31.31Q57.25 30.70 57.25 30.11L57.25 30.11Q57.25 28.68 58.38 27.77Q59.52 26.86 60.69 26.86L60.69 26.86Q62.25 26.86 63.36 28.36L63.36 28.36L76.36 46.17L74.80 45.97L87.02 28.42Q88.12 26.86 89.75 26.86Z"></path></svg>