<?xml version="1.0" encoding="UTF-8"?><svg id="Layer_1" xmlns="http://www.w3.org/2000/svg" width="525.98" height="556.16" viewBox="0 0 525.98 556.16"><defs><style>.cls-1{fill:#f9f6c1;}.cls-2{fill:#fff;}.cls-3{fill:#85593a;}.cls-4{fill:#b6a06e;}.cls-5{fill:#b0967d;}.cls-6{fill:#af7358;}.cls-7{fill:#ad865a;}.cls-8{fill:#d5b58f;}.cls-9{fill:#362a15;}.cls-10{fill:#3c2415;}.cls-11{fill:#79402d;}.cls-12{fill:#5f3f33;}</style></defs><circle class="cls-2" cx="267.13" cy="115.82" r="46.11"/><path class="cls-9" d="m325.89,347.83c-.07-.16-.17-.31-.27-.44-.05-.08-.11-.15-.19-.2-.14-.14-.29-.26-.45-.37l-.11-.11c-.06-.06-.12-.1-.2-.13-.04-.02-.09-.02-.13-.03,0,0-.01-.01-.02-.01-.03-.01-.06-.02-.09-.04-.04-.02-.08-.04-.12-.06-.1-.12-.23-.22-.43-.22-.26,0-.43.14-.52.32,0,0,0,0,0,0-.06.06-.09.13-.11.21,0,.06-.01.11-.02.17,0,.11.03.22.09.32.03.04.07.08.1.13.08.08.17.13.28.16.11.04.22.09.32.13.06.03.12.07.18.11.1.1.2.19.29.29,0,0,0,0,0,.01-.04.23-.1.44-.18.66-.05.11-.1.21-.16.32-.04.06-.08.11-.12.17-.03.03-.05.06-.08.09-.03.03-.04.07-.06.1-.15.15-.29.31-.44.46-.8-.7-1.94-.93-2.93-.35-.65.38-1.09,1.1-1.21,1.86-2.4.52-4.82.9-7.26,1.17-1.08.01-2.16,0-3.24-.1-1.81-.27-3.58-.75-5.29-1.42-.01,0-.03,0-.04,0-.04,0-.08-.01-.13-.01-.04,0-.08,0-.11,0-.19.03-.36.12-.44.29-.11.24-.24.46-.38.68-.49.26-.87.69-1.09,1.23-1.04.87-2.39,1.33-3.79,1.23-1.92-.4-3.44-1.91-3.92-3.82,0,0,0,0,0,0-.62-2.81-1.25-5.62-1.87-8.43-.03-.12-.08-.2-.14-.27-.06-.15-.19-.28-.41-.31-5.54-.8-11.15.06-16.19,2.49-.46.22-.37.72-.07.97,1.75,5.32,1.46,11.14-.8,16.26-.13.04-.27.07-.48.11-.67.11-1.17.56-1.47,1.13-.39-.15-.88.02-.82.54.08.7.2,1.39.33,2.08.03,7.43,5.07,14.22,12.12,16.39,3.09,1.18,6.42,1.7,9.74,1.51-.72,1.46-.98,3.17-.67,4.85.51,2.8,2.27,5,4.51,6.59.07.05.14.1.21.15.31.21.63.41.95.6.04.02.07.04.11.06.82.47,1.68.86,2.55,1.18,4.13,1.51,8.85,1.46,12.79-.58,3.52-1.82,6.35-5.2,6.92-9.19.54-3.82-1.34-7.45-4.7-9.02.2-.11.4-.23.59-.35,1.36-.49,2.63-1.21,3.73-2.19,1.9-1.7,3.23-3.93,4.51-6.1.04-.07.06-.15.08-.22,0,0,0-.02,0-.03,0,0,0,0,0-.01.04-.14.04-.3-.05-.47-.93-1.67-1.46-3.52-1.61-5.4.06-1.75.43-3.43,1.05-5.08.18-.48.15-.98-.03-1.45.12-.51.25-1.02.37-1.53.02-.08.02-.16,0-.23.38-.52.57-1.17.46-1.8.25-.91.47-1.82.65-2.74.15-.76.28-1.56-.04-2.29Z"/><path class="cls-7" d="m236.39,400.38c-16.66-5.4-32.1-14.36-45.05-26.16-.76-.69-1.64-.8-2.41-.55-.82-.05-1.66.27-2.22,1.15-9.73,15.3-6.04,33.94-1.95,50.47.01.35.03.7.04,1.05.03.89.54,1.74,1.3,2.19.6.46,1.41.62,2.21.47l41.5-7.97c.61-.12,1.09-.52,1.41-1.04.23-.26.4-.58.48-.95,1.07-5.47,2.97-10.08,6.03-14.69.21-.31.3-.67.33-1.04.22-1.15-.25-2.46-1.68-2.92Z"/><g><path class="cls-7" d="m289.12,342.19s-.03,0-.04,0c.13.01.14.01.04,0Z"/><path class="cls-7" d="m332.17,311.66c-6.85-7.59-14.1-14.85-21.16-22.25-1.14-1.2-2.28-2.39-3.42-3.59-2.18-3.68-4.82-7.1-7.84-10.13-.12-.29-.3-.58-.58-.85-4.6-4.55-9.21-9.11-13.81-13.66-1.12-1.11-2.24-2.22-3.36-3.33-1.07-1.06-2.42-3.01-4.07-3.01s-3.35.47-4.95.7c-1.59.23-3.17.45-4.76.68-.2.03-.38.1-.56.19-1.54-1.12-3.08-2.24-4.62-3.36-.43-.31-.95-.4-1.46-.34-1.16-.47-2.39.03-3.09,1.05-9.16,13.19-14.55,28.84-15.72,44.84-.29,4.01-.28,8.04-.01,12.06-.24.35-.4.78-.42,1.31,0,.24-.02.49-.03.73-2.47,5.24-4.93,10.48-7.4,15.72-.1.21-.17.44-.22.66-.95.44-1.91.88-2.86,1.32-3.61,1.69-7.23,3.37-10.84,5.06-.34.16-.6.41-.79.71-.46.09-.83.31-1.11.59-.03,0-.06.02-.09.02-1.32.3-2.09,1.82-1.75,3.08.37,1.35,1.75,2.05,3.08,1.75,7.57-1.72,14.8-4.98,21.08-9.54.04-.03.08-.07.12-.1-.07,1.71-.14,3.42-.21,5.13-6.68,6.07-11.69,14.38-13.45,23.27-1.76,8.9.12,19.4,8.91,23.88,1.74.89,3.6,1.46,5.48,1.68,2.44,1.76,5.77,1.2,8.15-.58,2.84-2.13,5.23-5.01,7.73-7.52,5.3-5.34,10.6-10.68,15.9-16.02.51-.52.72-1.1.72-1.66,0-.01.01-.02.01-.03,1.66-4.6,1.95-9.67.9-14.44,0-.25,0-.51,0-.76,1.81-1.06,3.61-1.78,5.76-2.3,1.48-.36,2.37-.48,3.81-.55.66-.03,1.32-.03,1.98,0,.38.01.75.04,1.13.07.19.02.38.04.56.06.11.01.17.02.22.03.58.08,1.16.01,1.66-.2.12.25.27.49.48.69.08.08.16.16.24.24.03.03.04.05.06.07.06.11.12.23.13.25.03.05.05.11.08.16.05.17.12.34.16.52.04.17.08.34.12.51.02.11.04.23.06.34.04.28.04.23-.02-.15.14.33.08.87.1,1.23.12,2,.26,4.06,1.33,5.82,1.05,1.72,2.85,2.99,4.92,2.92,2.06-.07,4.1-1.39,4.58-3.47,0-.01,0-.03,0-.04.05.01.11.02.16.04.16.1.33.19.51.26.43.18.87.33,1.31.48.11.05.21.09.32.14.07.02.15.02.22.03,5.88,1.78,12.42,1.05,17.82-1.87,1.19-.64,1.56-2.28.9-3.42-.02-.03-.04-.05-.05-.07.85-4.24-1.38-8.2-3.96-11.48-2.17-2.75-5.63-6.16-4.47-10.02.93-3.09-3.9-4.41-4.82-1.33-1.38,4.61.99,8.89,3.76,12.41,2.17,2.76,5.62,6.17,4.43,10.02-.04.13-.06.26-.08.39-3.26,1.33-6.8,1.66-10.27,1.01-.07-.07-.14-.14-.23-.19-.24-.22-.52-.37-.85-.45-.32-.07-.63-.14-.95-.22-.11-.21-.25-.41-.42-.58-.17-.13-.34-.26-.51-.39-.39-.23-.81-.34-1.26-.34-.83-.09-1.65-.18-2.48-.28-.34-.01-.67.06-.96.22-.06.02-.11.05-.16.08-1.6-4.1-4.62-7.62-8.67-9.55-1.18-.56-2.75-.37-3.42.9-.05.1-.09.21-.13.32-6.06-.53-12.17.91-17.22,4.41-.74.52-1.2,1.33-1.22,2.18-.59-.78-1.41-1.38-2.51-1.63-1.15-.26-2.51-.1-3.66.44,1-4.46,2.15-8.92,2.82-13.44.76-5.13.26-9.93-2.3-14.51-1.39-2.48-3.2-4.68-5.18-6.73.34-6.14.68-12.29,1.02-18.43.53-9.54,1.05-19.09,1.58-28.63.05-.96-.36-1.63-.97-2.02.15-.23.29-.46.44-.69,5.43,3.95,10.86,7.9,16.29,11.85,1.09.79,2.79.19,3.42-.9.74-1.26.2-2.62-.9-3.42-2.37-1.72-4.73-3.44-7.1-5.16,1.25-.18,2.5-.36,3.74-.54,5.06,5,10.11,10,15.17,15,.09.45.3.86.67,1.18.57.48,1.11.96,1.65,1.44-.24.76-.13,1.64.58,2.39,2.83,2.96,5.66,5.92,8.48,8.89.38.67.76,1.35,1.12,2.05.37.73,1.19,1.17,2.01,1.23,3.18,3.33,6.35,6.65,9.53,9.98,3.44,3.6,6.9,7.18,10.31,10.81,2.8,2.98,5.56,6.04,7.83,9.45,2.48,3.71,4.46,7.86,4.86,12.36.12,1.34,1.06,2.5,2.5,2.5,1.26,0,2.62-1.15,2.5-2.5-.82-9.08-6.13-16.51-12.07-23.08Zm-77.42-8.17c-2.52-1.56-5.87-.63-7.18,1.86-.05-13.01,2.84-26.01,8.57-37.72.22-.44.44-.87.67-1.31-.68,12.39-1.37,24.78-2.05,37.16Z"/></g><path class="cls-7" d="m340.82,339.2c1.53-.2,2.21-1.63,2.01-2.9.47-1.09.14-2.64-1.01-3.18-.73-.35-1.46-.71-2.19-1.07.21-.54.31-1.12.29-1.72-.07-1.55-.79-2.94-1.91-3.87-.43-1.41-1.42-2.59-2.73-3.19-.21-1.84-1.32-3.42-2.92-4.16-.19-1.71-1.17-3.2-2.6-4-.04-.18-.11-.35-.17-.52-.03-.16-.07-.32-.12-.48-.4-1.23-1.15-2.33-2.3-2.99-1-.57-1.96-1.21-2.89-1.89-1.61-1.31-3.07-2.78-4.37-4.39-.1-.13-.2-.26-.29-.4-.77-1.09-1.67-1.93-2.99-2.3-.08-.02-.17-.02-.25-.04-6.85-8.51-14.19-16.64-22-24.28-.06-.06-.14-.11-.21-.16-.09-.6-.28-1.19-.63-1.75-3.93-6.41-8.85-12.25-14.57-17.14-1.03-.87-2.15-1.46-3.54-1.46-1.23,0-2.69.54-3.54,1.46-.83.9-1.35,2.16-1.43,3.42-.51.07-1,.25-1.46.48-.09-.4-.27-.78-.53-1.08-.41-2.4-2.35-4.31-4.91-4.31s-5.12,2.3-5,5c.04.8.26,1.56.61,2.24-2.01.2-3.91,1.47-4.39,3.58-.15.69-.31,1.38-.46,2.07-2.18.06-3.85,1.47-4.72,3.62-1.76,4.37-2.69,9.06-2.87,13.76-.08,1.98-.07,4.09.28,6.07-1.51,1.08-2.66,2.68-3.19,4.48-.94,3.15.18,6.11,1.4,8.98,1.03,2.42,4.77,3.13,6.84,1.79.2-.13.36-.27.53-.41.32.79.65,1.58.96,2.38,2.64,6.6,5.04,13.29,7.21,20.06.2.63.52,1.21.94,1.73-.46.93-.82,1.92-1.03,2.95-.75,3.66-.28,7.25.35,10.88.45,2.58,3.75,4.27,6.15,3.49,2.68-.87,3.87-3.21,3.52-5.86,1.81-.62,3.03-2.19,3.34-4.03,0,0,0,0,0,0,1.62-.6,3.29-1.07,4.98-1.39.36-.07.86-.22,1.23-.21-1.17-.04.05,0,.32-.02.82-.08,1.65-.12,2.48-.14.83-.01,1.66,0,2.48.07.45.03.9.08,1.35.12.2.03.41.06.61.1,1.8.31,3.79-.07,5.03-1.44,2.27,4.33,6.08,8.33,10.44,10.21,2.76,1.19,5.72,1.65,8.69,2.03,2.08.27,4.24.03,5.75-1.21,1.09.71,2.66.71,3.52-.73.29-.48.57-.96.86-1.44.98-1.64-.28-3.75-2.16-3.76-.17,0-.34,0-.52,0-.35-1.62-1.1-3.2-1.7-4.71-1.12-2.8-2.1-5.73-3.47-8.42-.38-.75-.84-1.41-1.35-2.01.29-.14.58-.29.85-.46,1.1-.7,1.65-2.26.9-3.42-.71-1.1-2.24-1.65-3.42-.9-.13.08-.27.16-.4.24-.06.04-.1.06-.13.08,0,0-.01,0-.02,0-.31.1-.62.19-.94.25-.03,0-.07,0-.12,0-.16,0-.31,0-.47,0-.06,0-.09,0-.13,0-.01,0-.01,0-.02,0-.15-.04-.3-.06-.44-.1-.14-.04-.29-.09-.43-.14-.03-.02-.07-.04-.11-.07-.13-.08-.26-.15-.39-.23-.05-.03-.07-.04-.1-.06,0,0,0,0-.02-.02-.21-.21-.44-.41-.64-.65-.02-.03-.04-.07-.06-.11-.1-.17-.2-.35-.3-.52-.82-1.54-1.74-2.71-3.23-3.68-1.24-.81-2.55-1.53-3.85-2.25-.52-2.5-3.43-3.97-5.9-3.3-2.53.69-4.45,3.02-6.59,4.45-4.1,2.73-8.68,4.49-13.51,5.32-2.02-8.53-3.19-17.22-3.53-25.95.11-.35.21-.7.33-1.04.11-.31.22-.62.34-.92.07-.19.15-.38.22-.57.02-.04.04-.09.05-.13.54-1.27,1.16-2.5,1.85-3.69.68-1.17,1.43-2.3,2.24-3.38.03-.04.22-.28.22-.28.07-.09.15-.19.22-.28.21-.25.42-.51.63-.75.1-.12.22-.23.32-.35,8.34,9.75,17.32,18.95,26.89,27.5,3.53,3.15,7.15,6.22,10.83,9.2.23.19.49.34.76.46.15.15.3.29.49.41.02.02.16.1.26.16.06.05.17.13.19.15.24.21.47.43.69.67.12.13.23.26.34.39,0,0,0,.01.01.02.04.06.08.12.12.18.08.61.27,1.2.61,1.72.26.34.52.67.78,1.01.04.04.08.07.12.11.04.09.07.18.07.18.12.31.24.62.35.94,1,2.72,1.96,5.42,3.79,7.68,0,.41.1.83.34,1.24,3.49,5.75,4.06,12.47,1.99,18.82-1.06,3.27-2.21,6.54-1.51,10.01.48,2.39,1.9,4.59,3.98,5.82-.01.11-.03.21-.03.33.06,2.42.12,4.85.18,7.27-.07.36-.06.73.05,1.06.05.15.11.28.17.41,0,0,0,.02.01.03.02.03.03.06.05.09.41.85,1.24,1.49,2.23,1.45.4-.02.79-.14,1.14-.32,3.76-.62,7.52-1.24,11.28-1.86,1.36.41,3.14-.26,3.39-2.02.1-.35.12-.71.07-1.05.52-12.53-1.14-25.12-4.83-37.1Z"/><path class="cls-12" d="m368.78,476.44c.08-1.55.11-3.1.06-4.65h0s0,0,0,0c-.2-6.57-1.54-13.1-3.92-19.27,0-.19-.03-.37-.08-.56-.1-.36-.2-.71-.29-1.07-.04-.19-.12-.36-.21-.52-.01-.17-.04-.34-.1-.52-2.92-9.12-5.85-18.24-8.77-27.36-1.47-4.6-2.95-9.2-4.42-13.8-1.39-4.35-2.81-8.7-3.79-13.16-1.08-4.93-1.59-10.06-.64-15.05.25-1.33-.37-2.7-1.75-3.08-.34-.09-.7-.09-1.06-.03-.35-.06-.73-.07-1.12-.01-4.81.75-9.62,1.51-14.43,2.26-1.3.2-2.13,1.89-1.75,3.08.05.15.11.28.17.4-.85,15.72-1.69,31.43-2.54,47.15-.01.28.02.52.08.75.17,7.15.17,14.39,1.89,21.36,1.06,4.31,2.72,8.48,4.89,12.37-7.61-3.06-15.47-5.46-23.53-7.08-5.17-1.04-10.41-1.77-15.66-2.21-4.91-.41-9.82-.38-14.74-.5-4.65-.11-9.36-.57-13.42-2.91.13-7.75-3.43-15.5-9.55-20.3-5.75-4.52-13.32-6.3-20.47-4.96-.45-1.56-.9-3.11-1.36-4.67-.01-.05-.04-.1-.06-.15,0-.22,0-.44-.07-.64-.38-1.38-1.75-2.02-3.08-1.75l-30.92,6.31c-3.91.59-7.82,1.19-11.73,1.78-1.3.2-2.13,1.9-1.75,3.08,0,.02.02.04.02.06l1,20.72c.01.24.06.46.13.68-.06.22-.1.45-.1.69v2.19s0,.05,0,.08c-2.91-.52-5.81-1.04-8.72-1.57-.5-.09-1.03-.05-1.51.1-12.55-1.38-25.18-1.52-37.74-.48-.34-.18-.71-.29-1.11-.24-4.23.52-8.46,1.03-12.69,1.57-4.05.52-8.11,1.09-12.04,2.24-6.91,2.03-13.82,6.07-17.1,12.75-1.9,3.87-2.56,8.21-1.46,12.41,0,0,0,.01,0,.02-.05.47.05.99.39,1.51,3.1,4.86,7.58,8.56,12.95,10.67,6,2.35,12.64,2.47,18.99,2.85,13.61.81,27.23,1.61,40.85,2.22,7.73.34,15.45.62,23.19.8.16,0,.3-.02.44-.04.04,0,.09.03.13.02.37-.03.75-.06,1.11-.18,0,0,0,0,0,0,1.01-.07,1.99-.81,2.17-1.83,0-.03,0-.06,0-.08.17-.13.28-.35.2-.62-.43-1.53-.86-3.07-1.28-4.6-.1-1.07-.14-2.14-.09-3.21.03-.55.07-1.1.14-1.64,0-.04.02-.11.04-.24.03-.18.06-.35.09-.53.05-.27.1-.53.16-.79.09-.4.21-.8.33-1.19,1.79-.29,3.56-.73,5.3-1.37,2.53-.93,4.82-2.18,7.16-3.5.46-.26.94-.5,1.41-.74-.07.07.92-.33,1.15-.38.22-.06.45-.1.68-.14.07,0,.15,0,.25,0,.69,0,1.37.04,2.06.07.01,0,.01,0,.02,0,.01,0,.01,0,.03,0,.3.07.62.11.92.17.62.13,1.23.27,1.84.43,1.3.33,2.58.7,3.87,1.03,2.61.66,5.25,1.17,7.91,1.56,5.3.78,10.63,1.19,15.97,1.46.22,1.67.45,3.34.67,5.01.06.43.12.86.15,1.3.02.23,0,.46.01.7,0,.03,0,.05,0,.07,0,.02,0,.03,0,.05,0,.04-.03.08-.04.12-1.14.25-2.12,1.19-2.07,2.44.06,1.41,1.1,2.44,2.5,2.5,3.54.16,7.07.33,10.61.49.36.02.71-.07,1.04-.23.28.26.65.47,1.13.58,14.66,3.34,29.58,5.53,44.59,6.55,8.37.77,16.79.97,25.17.59.58-.01,1.16-.02,1.74-.03,6.75-.18,13.49-.61,20.21-1.27.52-.05,1.01-.22,1.42-.5.24.02.5,0,.77-.06,5.7-1.31,11.87-2.95,15.74-7.68,3.24-3.96,3.69-8.76,3.33-13.58.02-1.42.04-2.84.05-4.26Z"/><path class="cls-7" d="m244.14,484.33c-1.6-2.49-4.81-2.74-7.45-3.19-4.37-.74-8.74-1.48-13.11-2.23-3.19-3.26-7.56-5.26-12.21-5.17-5.38.1-10.35,2.93-13.41,7.29-1.95.18-3.89.36-5.84.53-.68.06-1.27.24-1.77.73-.36.36-.63.9-.7,1.43-.44.31-.78.75-.91,1.32-.98,4.18-.38,8.59,1.71,12.35.18.32.45.58.75.79.39.35.93.58,1.62.57,5.63-.11,11.26-.22,16.89-.33,7.1,1.06,14.29,1.53,21.47,1.31,3.64-.11,7.81-.1,10.63-2.76,2-1.88,2.93-4.85,2.44-7.54.92-1.5.87-3.57-.11-5.09Z"/><path class="cls-4" d="m214.45,363.38c.05-.2.07-.41.05-.63-.46-3.76-.92-7.52-1.37-11.27-.16-1.29-1.04-2.57-2.5-2.5-1.23.06-2.66,1.11-2.5,2.5.14,1.23.28,2.47.41,3.7-.05.11-.1.23-.13.35-.82,3.37-.31,6.96,1.48,9.94.55.91,1.77,1.49,2.82,1.15.97-.31,1.96-1.3,1.84-2.41l-.09-.83Z"/><path class="cls-1" d="m252.42,381.78c-3.82,2.57-8.5,3.66-13.06,2.98-4.09-1.73-7.64-4.71-10.06-8.43-2.09-6.47-1.98-13.42.35-19.84.08-.22.09-.41.06-.59,2.46-7.27,6.64-13.85,12.16-19.17.31-.3.4-.65.36-.98,0-.01.01-.02.02-.03.03-.08.05-.16.08-.25.04-.14.05-.28.04-.42.09-.53.18-1.06.27-1.6.22-1.27-1.1-2.02-2.09-1.22-2.67,2.15-5.61,3.96-8.7,5.44l-3.2,1.29c-3.12.97-6.28,1.78-9.48,2.44-.26,0-.51-.03-.73-.12-.07-.08-.23-.2-.28-.24-.04-.04-.08-.09-.12-.13,0,0,0,0,0,0-.08-.12-.16-.23-.22-.35-.03-.05-.05-.11-.08-.16-.06-.58.26-1.27.51-1.72.77-1.43,2.06-2.56,3.59-3.1.19-.07.32-.2.38-.35.07-.1.13-.21.12-.35-.01-.31-.28-.66-.62-.62-.23.02-.45.06-.67.11-.02,0-.03,0-.05,0-2.12.37-4.24.75-6.36,1.12-.14-.01-.27,0-.4.04-.55.22-1.1.45-1.65.67-7.72,1.64-14.67,6.43-19.01,12.99-4.46,5.96-4.75,14.81-5.54,21.99-.45,1.04-.3,2.36.9,3.17l12.39,8.32c1.81,1.3,3.63,2.58,5.47,3.84,3.04,2.09,6.18,4.39,9.51,6.25.47.46,1.04.82,1.64,1.12.94.47,1.88.92,2.83,1.39.04.02.08.02.12.04.08.07.17.13.28.18,5.14,2.4,10.48,4.31,15.98,5.71.21.08.41.16.62.24,1.22.48,2.8-.52,3.08-1.75,0-.02,0-.03,0-.05,2.96-3.59,5.92-7.18,8.88-10.77.04-.04.07-.08.1-.12,1.37-1.67,2.75-3.33,4.12-5,.84-1.01-.25-2.82-1.51-1.96Z"/><path class="cls-10" d="m184.32,479.31c-14.15-5.55-29.48-7.99-44.66-7.1-4.29.25-8.55.78-12.78,1.55-.79.14-.46,1.35.33,1.21,19-3.46,38.8-1.5,56.78,5.55.75.29,1.07-.91.33-1.21Z"/><path class="cls-10" d="m263.84,452.74c-.36-.1-.64.13-.77.44-1.59,3.81-4.43,7.06-7.97,9.19-.69.42-.06,1.5.63,1.08,3.84-2.31,6.82-5.81,8.54-9.94.13-.31-.14-.68-.44-.77Z"/><path class="cls-10" d="m339.29,471.71c-2.75-1.82-5.11-4.2-6.9-6.97-.43-.67-1.52-.05-1.08.63,1.9,2.96,4.41,5.48,7.34,7.42.67.44,1.3-.64.63-1.08Z"/><path class="cls-3" d="m245.61,346.99c-2.54-8.87-3.48-18.49-2.72-27.99.06-.75-.77-.74-.83,0-.76,9.59.19,19.34,2.75,28.3.2.69,1,.39.8-.31Z"/><path class="cls-3" d="m308.29,286.62c-9.76-9.95-21.03-18.62-33.46-25.76-.98-.56-1.88.84-.91,1.4,12.3,7.07,23.43,15.66,33.09,25.51.77.78,2.03-.37,1.27-1.14Z"/><path class="cls-3" d="m243.23,488.7c-3.02.2-6.04.02-9.01-.57-.79-.15-1.12,1.05-.33,1.21,3.08.6,6.21.82,9.34.61.8-.05.8-1.3,0-1.25Z"/><path class="cls-3" d="m242.21,491.82c-2.1.52-4.29.59-6.41.17-.33-.07-.67.09-.77.44-.08.31.1.7.44.77,2.35.46,4.76.41,7.08-.17.78-.19.45-1.4-.33-1.21Z"/><path class="cls-3" d="m242.78,494.6c-.1-.32-.43-.53-.77-.44-1.12.3-2.23.61-3.35.91-.32.09-.54.45-.44.77.1.32.43.53.77.44,1.12-.3,2.23-.61,3.35-.91.32-.09.54-.45.44-.77Z"/><path class="cls-3" d="m344.35,334.21c-.11-.82-.29-1.62-.53-2.41,0-.04,0-.07,0-.11-1.13-5.51-4.45-10.43-9.09-13.59-.67-.45-1.29.63-.63,1.08,3.93,2.68,6.79,6.71,8.11,11.25-.07.13-.1.28-.04.42.39.96.69,1.96.87,2.99.09.48.16.98.17,1.47,0,.2-.02.49-.14.69-.34-1.17-.81-2.3-1.4-3.37.02-.13,0-.27-.07-.4-2.38-4.22-5.69-7.86-9.66-10.64-.66-.46-1.29.62-.63,1.08,3.52,2.47,6.47,5.67,8.7,9.35-.02.12,0,.25.08.39,0,0,0,.01,0,.02.02.12.08.24.19.34.56.94,1.04,1.91,1.38,2.95.2.59.36,1.18.49,1.79.03.15.21,1.07-.12.97-.06-.02-.11-.01-.16-.02-3.53-6.72-10.08-11.68-17.52-13.23-.78-.16-1.12,1.04-.33,1.21.24.05.48.11.72.17,0,0,0,0,0,0-1.11,2.84-.86,6.11.62,8.77.01.02.03.03.05.05,0,.26.17.48.43.58,0,0,0,0,0,0-.06-.02-.07-.04,0,0,0,0,.01,0,.02.01.01.01.02.02.04.04,0,0,0,.01.01.02,0,0,0,.02.02.03,0,.02.02.05.02.06,0,.03.01.05.02.08,0,.01,0,.03,0,.04,0,.04,0,.07,0,.11,0,0,0,0,0,.01,0,.03-.01.07-.02.1,0,.02-.04.1-.04.1,0,0,0,0,0,.01-.01.03-.03.05-.05.07,0,0-.01.01-.02.02-.01.01-.03.03-.04.04-.02.01-.03.02-.03.02-.02,0-.03.02-.05.03-.02.01-.04.02-.06.03-.03.01-.11.03-.12.03-.02,0-.05.01-.07.02-.02,0-.1,0-.04,0-.04,0-.09,0-.1,0-.05,0-.1,0-.14,0-.01,0,0,0-.01,0,0,0,0,0-.01,0-.06-.01-.13-.03-.19-.05-.05-.01-.09-.03-.14-.05-.01,0-.01,0-.02,0,0,0,0,0-.02,0-.1-.05-.2-.11-.3-.17-.01,0-.01,0-.02,0,0,0,0,0-.02-.01-.04-.04-.08-.07-.12-.11-.09-.09-.17-.18-.25-.27-.02-.03-.04-.06-.07-.09-.04-.05-.07-.1-.1-.16-.07-.11-.14-.23-.2-.35-.13-.24-.24-.49-.34-.74-.13-.3-.6-.39-.86-.22-.31.2-.36.53-.22.86.48,1.11,1.17,2.29,2.45,2.58.66.15,1.34.04,1.87-.39.4-.33.61-.88.59-1.39-.02-.54-.27-1.01-.69-1.3,0-.08-.03-.17-.08-.25-1.3-2.34-1.47-5.15-.54-7.64.27.06.54.13.78.22-.01-.06-.03-.13-.04-.19,6.23,2.04,11.52,6.56,14.45,12.48.21.42.67.37.94.12.66.03,1.27-.48,1.42-1.14.1-.41.06-.86-.03-1.29,1.13-.58,1.1-1.96.94-3.09Z"/><circle class="cls-11" cx="267.13" cy="116.85" r="46.11"/><path class="cls-6" d="m374.37,145.42l-25.79,38.23c-20.97-14.15-26.59-43.04-12.44-64.01,14.02-20.79,42.57-26.52,63.53-12.76l-25.3,38.55Z"/><path class="cls-5" d="m406.44,196.59c0-25.93,19.6-46.95,43.79-46.95,7.05,0,13.71,1.8,19.6,4.97-8.37-11.67-22.03-19.28-37.49-19.28-25.47,0-46.11,20.64-46.11,46.11,0,19.23,11.77,35.7,28.49,42.62-5.21-7.72-8.29-17.21-8.29-27.47Z"/><path class="cls-8" d="m448.77,239.59c0-20.7,16.92-37.48,37.8-37.48,11.99,0,22.67,5.54,29.59,14.18-6.1-14.4-20.46-24.51-37.2-24.51-22.28,0-40.33,17.91-40.33,39.99,0,16.08,9.57,29.93,23.36,36.28-8.09-6.87-13.22-17.07-13.22-28.46Z"/><circle class="cls-11" cx="267.13" cy="116.85" r="46.11"/><path class="cls-6" d="m159.88,145.42l25.79,38.23c20.97-14.15,26.59-43.04,12.44-64.01-14.02-20.79-42.57-26.52-63.53-12.76l25.3,38.55Z"/><path class="cls-5" d="m101.91,135.33c-15.46,0-29.12,7.61-37.49,19.28,5.9-3.17,12.55-4.97,19.61-4.97,24.18,0,43.79,21.02,43.79,46.95,0,10.26-3.08,19.74-8.28,27.47,16.72-6.92,28.49-23.39,28.49-42.62,0-25.47-20.64-46.11-46.11-46.11Z"/><path class="cls-8" d="m55.29,191.77c-16.74,0-31.09,10.11-37.2,24.51,6.92-8.63,17.6-14.18,29.59-14.18,20.87,0,37.8,16.78,37.8,37.48,0,11.39-5.13,21.59-13.22,28.46,13.79-6.35,23.36-20.21,23.36-36.28,0-22.09-18.06-39.99-40.33-39.99Z"/><path class="cls-2" d="m224.61,124.01c-.8,0-.81,1.25,0,1.25s.81-1.25,0-1.25Z"/><path class="cls-2" d="m226.71,123.08c-.8,0-.81,1.25,0,1.25s.81-1.25,0-1.25Z"/><path class="cls-2" d="m224.61,121.67c-.8,0-.81,1.25,0,1.25s.81-1.25,0-1.25Z"/><path class="cls-2" d="m223.2,115.82c-.8,0-.81,1.25,0,1.25s.81-1.25,0-1.25Z"/><path class="cls-2" d="m224.37,117.46c-.8,0-.81,1.25,0,1.25s.81-1.25,0-1.25Z"/><path class="cls-2" d="m225.54,115.12c-.8,0-.81,1.25,0,1.25s.81-1.25,0-1.25Z"/><path class="cls-2" d="m226.71,119.33c-.8,0-.81,1.25,0,1.25s.81-1.25,0-1.25Z"/><path class="cls-2" d="m222.97,112.31c-.8,0-.81,1.25,0,1.25s.81-1.25,0-1.25Z"/><path class="cls-2" d="m223.9,108.8c-.8,0-.81,1.25,0,1.25s.81-1.25,0-1.25Z"/><path class="cls-2" d="m225.07,110.43c-.8,0-.81,1.25,0,1.25s.81-1.25,0-1.25Z"/><path class="cls-2" d="m226.24,108.56c-.8,0-.81,1.25,0,1.25s.81-1.25,0-1.25Z"/><path class="cls-2" d="m225.07,105.99c-.8,0-.81,1.25,0,1.25s.81-1.25,0-1.25Z"/><path class="cls-2" d="m224.37,103.65c-.8,0-.81,1.25,0,1.25s.81-1.25,0-1.25Z"/><path class="cls-2" d="m226.95,103.65c-.8,0-.81,1.25,0,1.25s.81-1.25,0-1.25Z"/><path class="cls-2" d="m226.24,101.77c-.8,0-.81,1.25,0,1.25s.81-1.25,0-1.25Z"/><path class="cls-2" d="m225.07,127.52c-.8,0-.81,1.25,0,1.25s.81-1.25,0-1.25Z"/><path class="cls-2" d="m227.18,99.2c-.8,0-.81,1.25,0,1.25s.81-1.25,0-1.25Z"/><path class="cls-2" d="m237.01,147.89c-.8,0-.81,1.25,0,1.25s.81-1.25,0-1.25Z"/><path class="cls-2" d="m238.65,149.53c-.8,0-.81,1.25,0,1.25s.81-1.25,0-1.25Z"/><path class="cls-2" d="m239.12,147.89c-.8,0-.81,1.25,0,1.25s.81-1.25,0-1.25Z"/><path class="cls-2" d="m240.76,150.93c-.8,0-.81,1.25,0,1.25s.81-1.25,0-1.25Z"/><path class="cls-2" d="m243.33,150.93c-.8,0-.81,1.25,0,1.25s.81-1.25,0-1.25Z"/><path class="cls-2" d="m243.57,152.81c-.8,0-.81,1.25,0,1.25s.81-1.25,0-1.25Z"/><path class="cls-2" d="m246.38,154.44c-.8,0-.81,1.25,0,1.25s.81-1.25,0-1.25Z"/><path class="cls-2" d="m189.19,176.97c-.8,0-.81,1.25,0,1.25s.81-1.25,0-1.25Z"/><path class="cls-2" d="m190.83,175.66c-.8,0-.81,1.25,0,1.25s.81-1.25,0-1.25Z"/><path class="cls-2" d="m188.86,175.01c-.8,0-.81,1.25,0,1.25s.81-1.25,0-1.25Z"/><path class="cls-2" d="m193.77,173.04c-.8,0-.81,1.25,0,1.25s.81-1.25,0-1.25Z"/><path class="cls-2" d="m344.8,176.64c-.8,0-.81,1.25,0,1.25s.81-1.25,0-1.25Z"/><path class="cls-2" d="m346.43,177.95c-.8,0-.81,1.25,0,1.25s.81-1.25,0-1.25Z"/><path class="cls-2" d="m347.08,175.99c-.8,0-.81,1.25,0,1.25s.81-1.25,0-1.25Z"/><path class="cls-2" d="m342.51,174.68c-.8,0-.81,1.25,0,1.25s.81-1.25,0-1.25Z"/><path class="cls-2" d="m439.73,148.68c-.8,0-.81,1.25,0,1.25s.81-1.25,0-1.25Z"/><path class="cls-2" d="m441.79,148.49c-.8,0-.81,1.25,0,1.25s.81-1.25,0-1.25Z"/><path class="cls-2" d="m440.78,146.88c-.8,0-.81,1.25,0,1.25s.81-1.25,0-1.25Z"/><path class="cls-2" d="m444.01,147.68c-.8,0-.81,1.25,0,1.25s.81-1.25,0-1.25Z"/><path class="cls-2" d="m446.23,147.48c-.8,0-.81,1.25,0,1.25s.81-1.25,0-1.25Z"/><path class="cls-2" d="m447.45,146.27c-.8,0-.81,1.25,0,1.25s.81-1.25,0-1.25Z"/><path class="cls-2" d="m448.66,147.48c-.8,0-.81,1.25,0,1.25s.81-1.25,0-1.25Z"/><path class="cls-2" d="m450.88,147.28c-.8,0-.81,1.25,0,1.25s.81-1.25,0-1.25Z"/><path class="cls-2" d="m77.13,148.09c-.8,0-.81,1.25,0,1.25s.81-1.25,0-1.25Z"/><path class="cls-2" d="m79.35,148.09c-.8,0-.81,1.25,0,1.25s.81-1.25,0-1.25Z"/><path class="cls-2" d="m78.34,146.88c-.8,0-.81,1.25,0,1.25s.81-1.25,0-1.25Z"/><path class="cls-2" d="m81.37,147.48c-.8,0-.81,1.25,0,1.25s.81-1.25,0-1.25Z"/><path class="cls-2" d="m83.19,147.48c-.8,0-.81,1.25,0,1.25s.81-1.25,0-1.25Z"/><path class="cls-2" d="m85.01,146.07c-.8,0-.81,1.25,0,1.25s.81-1.25,0-1.25Z"/><path class="cls-2" d="m85.61,147.48c-.8,0-.81,1.25,0,1.25s.81-1.25,0-1.25Z"/><path class="cls-2" d="m87.83,147.68c-.8,0-.81,1.25,0,1.25s.81-1.25,0-1.25Z"/></svg>