<?xml version="1.0" encoding="UTF-8"?><svg id="Layer_1" xmlns="http://www.w3.org/2000/svg" width="675.52" height="1116.58" viewBox="0 0 675.52 1116.58"><defs><style>.cls-1{fill:#e6e7e8;}.cls-2{fill:#fff;}.cls-3{fill:#8b492f;}.cls-4{fill:#be1e2d;}.cls-5{fill:#ccddf2;}.cls-6{fill:#c49a6c;}.cls-7{fill:#daa883;}.cls-8{fill:#a96b28;}.cls-9{fill:#731012;}.cls-10{fill:#8a1a20;}.cls-11{fill:#3c2415;}.cls-12{fill:#2f2b28;}.cls-13{fill:#754c29;}</style></defs><path class="cls-12" d="m654.24,402.24c-8.71-18.8-26.29-31.35-29.03-53.01-1.53-12.13,1.28-24.09,1.72-36.19.44-11.84-2.46-22.72-8.31-32.98-11.03-19.34-27.45-35.24-36.73-55.62-8.83-19.41-12.39-40.95-23.47-59.35-14.96-24.84-38.51-41.61-61.16-59.2-5.24-2.45-10.56-4.72-15.97-6.85-7.74-3.05-15.67-5.61-23.73-7.68-10.12-2.59-20.36-4.18-30.71-5.51-16.5-2.12-33.25-2.13-49.75,0-10.27,1.33-20.43,2.9-30.47,5.47-7.98,2.04-15.83,4.57-23.5,7.58-17.27,6.77-33.82,14.98-48.93,25.78-1.67,1.2-3.33,2.42-4.96,3.67-2.91,1.57-5.25,3.72-7.01,6.44-.18.2-.34.41-.51.62-4.28,2.9-8.23,6.25-12.11,9.67-1.65,1.45-3.31,2.91-4.96,4.36-5.12,2.9-10.38,5.56-15.77,7.96-13.38,5.34-27.27,8.95-41.5,11.29-3.8.62-7.6,1.17-11.41,1.7-18.57,2.39-37.39,4.32-55.4,9.58-9.27,2.71-18.37,6.33-27.01,10.64-8.59,4.29-16.49,9.9-23.74,16.19-2.85,2.47-5.52,5.16-7.94,8.05-3.81,4.55-7.5,9.33-10.5,14.47-3.2,5.47-5.59,11.34-8.01,17.18-1.66,4-3.11,8.09-4.48,12.21-2.95,8.92-5.69,17.91-8.51,26.86-2.87,9.11-5.81,18.2-8.59,27.33-2.9,9.5-5.16,19-6.49,28.84-.37,2.77-.72,5.53-.94,8.3-2.75,8.28-3.51,17.19-2.15,25.79-.31,2.47-.51,4.94-.6,7.4-.2,5.62.62,11.41,1.7,16.87,1.24,6.3,3.89,12.38,6.64,18.13,1.94,4.05,4.31,7.88,6.9,11.55,3.74,5.28,7.77,10.38,11.94,15.33,6.68,7.94,13.6,15.68,20.41,23.5,7.09,8.14,14.19,16.28,21.28,24.42.33.38.67.76,1,1.15,3.96,12.15,7.84,24.34,10.88,36.76,1.63,6.66,2.99,13.38,4.01,20.15,1.95,17.32,1.82,35.03,6.59,51.9,2.54,8.97,6.35,17.72,10.79,25.9,3.62,6.67,7.86,12.99,12.38,19.07,4.72,6.36,9.64,12.55,14.65,18.68.67,1.63,1.37,3.25,2.07,4.88,1.93,4.44,4.34,8.64,7.17,12.56,3.99,5.55,8.26,10.99,13.21,15.72,5.17,4.94,10.96,9.32,16.81,13.4,4.33,3.02,8.84,5.76,13.45,8.33,9.14,5.1,18.64,9.53,27.97,14.25,2.58,1.31,5.15,2.64,7.7,4.02,9.1,12.21,17.16,25.2,27.38,36.56,5.91,6.57,12.81,12.23,20.12,17.19,7.19,4.88,15.21,8.43,23.32,11.46,8.25,3.08,16.7,4.42,25.42,5.51,6.6.83,13.3.85,19.9.03,8.47-1.06,16.65-2.35,24.64-5.4,7.81-2.98,15.48-6.39,22.44-11.04,4.26-2.85,8.34-6.02,12.26-9.32,2.4-2.01,4.68-4.16,6.84-6.42,3.58-3.77,6.72-7.92,9.85-12.07,1.88-2.49,3.62-5.1,5.2-7.8.79-1.35,1.53-2.73,2.24-4.12.79-1.25,1.42-2.54,1.9-3.87,5.93-7.02,12.95-12.98,20.17-18.64,13.55-10.35,27.25-20.42,37.92-33.9,9.72-12.29,18.21-25.42,26.59-38.64,4.92-4.98,10.12-9.67,15.58-14.06,10.92-8.16,22.7-15.12,35.09-20.78,0-.14,0-.28,0-.43.29-.05.57-.13.83-.28.01,0,.02-.02.03-.02.13-.09.4-.3.52-.4.02-.02.04-.03.05-.05,0-.01.02-.02.03-.03.12-.14.3-.37.41-.53.01-.02.03-.04.04-.06,0-.01.01-.02.02-.04,0,0,0,0,0,0,2.71-2.07,5.41-4.14,8.12-6.22,16.49-7.58,30.39-19.37,39.64-35.31,5.04-8.68,8.6-18.07,11.21-27.74,2.93-10.87,4.06-22.09,6.9-32.98,5.09-19.49,14.18-37.55,20.1-56.76,5.88-19.06,8.99-42.68.32-61.41Z"/><g><polygon class="cls-1" points="129.39 564.36 130.69 556.11 132 564.36 129.39 564.36"/><polygon class="cls-1" points="136.42 563.78 139.32 559.77 140.09 564.66 136.42 563.78"/><polygon class="cls-1" points="155.52 573.28 162.28 568.37 157.37 575.13 155.52 573.28"/><polygon class="cls-1" points="149.43 568.92 153.52 565.95 152.63 570.93 149.43 568.92"/><polygon class="cls-1" points="163.71 584.49 171.56 581.61 164.98 586.77 163.71 584.49"/><polygon class="cls-1" points="144.01 565.82 148.92 559.06 146.33 567 144.01 565.82"/><polygon class="cls-1" points="159.4 577.37 164.4 576.38 161.45 580.54 159.4 577.37"/><polygon class="cls-1" points="166.33 591.12 171.41 591.59 167.4 594.74 166.33 591.12"/><polygon class="cls-1" points="168.63 597.57 176.88 598.88 168.63 600.18 168.63 597.57"/><polygon class="cls-1" points="94.15 591 85.85 589.99 93.43 593.51 94.15 591"/><polygon class="cls-1" points="93.23 598.67 88.58 600.36 93.07 602.44 93.23 598.67"/><polygon class="cls-1" points="97.14 619.64 90.57 624.8 98.41 621.92 97.14 619.64"/><polygon class="cls-1" points="94.62 612.59 90.64 615.71 95.67 616.21 94.62 612.59"/><polygon class="cls-1" points="105.68 630.59 100.77 637.34 107.52 632.43 105.68 630.59"/><polygon class="cls-1" points="93.11 606.52 85.27 609.4 93.62 609.09 93.11 606.52"/><polygon class="cls-1" points="100.01 624.49 97.69 629.03 102.5 627.33 100.01 624.49"/><polygon class="cls-1" points="111.34 634.92 110.41 639.94 114.53 636.94 111.34 634.92"/><polygon class="cls-1" points="117.88 638 116.88 646.29 120.39 638.71 117.88 638"/><polygon class="cls-1" points="168.05 610.19 175.97 612.86 167.62 612.77 168.05 610.19"/><polygon class="cls-1" points="166.95 614.67 170.42 618.19 165.48 618.14 166.95 614.67"/><polygon class="cls-1" points="154.4 631.91 158.11 639.39 152.27 633.42 154.4 631.91"/><polygon class="cls-1" points="159.71 626.63 161.96 631.16 157.2 629.45 159.71 626.63"/><polygon class="cls-1" points="140.15 638.85 141.67 647.07 137.68 639.73 140.15 638.85"/><polygon class="cls-1" points="163.68 621.8 169.52 627.78 162.12 623.9 163.68 621.8"/><polygon class="cls-1" points="149.46 635.95 150.19 641 146.19 637.84 149.46 635.95"/><polygon class="cls-1" points="130.06 640.37 128.17 645.11 126.28 640.37 130.06 640.37"/><polygon class="cls-1" points="95.81 586.23 92.74 582.35 97.65 582.93 95.81 586.23"/><polygon class="cls-1" points="112.71 568.4 109.83 560.56 114.99 567.12 112.71 568.4"/><polygon class="cls-1" points="106.05 572.69 105.34 567.68 109.32 570.8 106.05 572.69"/><polygon class="cls-1" points="100.85 578.52 95.68 571.95 102.63 576.6 100.85 578.52"/><polygon class="cls-1" points="119.71 565.28 120.12 560.19 123.32 564.16 119.71 565.28"/><polygon class="cls-1" points="168.71 603.02 173.05 605.71 168.05 606.73 168.71 603.02"/></g><path class="cls-7" d="m504.57,1016.54s.03-.04.04-.06c1.32-2.23,1.69-5.22,1.01-7.71-.02-.07-.05-.15-.07-.22,1.09-9.23-5.63-18.79-14.68-20.99-.13-.03-.27-.05-.4-.08.1-.76.04-1.33-.13-2.25-.09-.51-.32-.99-.56-1.45.93-1.76,1.45-3.76,1.47-5.85.02-2.07-.41-4.14-.72-6.18-.01-.09-.05-.23-.09-.35.02.05.03.09.05.16-.14-.44-.11-1.05-.12-1.51-.01-.37.01-.75,0-1.12,0-.06,0-.1.01-.15.02-.12.04-.24.07-.35.49-2.11-.39-4.51-2.24-5.62-.49-2.29-2.4-4.09-4.88-4.09-2.07,0-4.07,1.45-4.75,3.39-1.3.92-2.19,2.41-2.12,4.04.03.72.21,1.41.5,2.04-1.53.88-2.64,2.51-2.56,4.32,0,.2.05.38.08.57-.61.47-1.12,1.07-1.46,1.75-.19-.08-.37-.17-.57-.23-2.03-.61-4.04-1.28-6.02-2.01-.93-.34-1.85-.69-2.77-1.06-.39-.16-.78-.32-1.18-.48-.05-.02-.07-.03-.1-.04-.22-.09-.43-.19-.65-.28-3.69-1.61-7.28-3.43-10.77-5.44-3.48-2.01-6.86-4.22-10.09-6.61-.4-.29-.79-.59-1.19-.89-.06-.05-.13-.1-.19-.15-.03-.03-.12-.1-.3-.24-.77-.62-1.54-1.23-2.3-1.87-1.23-1.02-2.42-2.09-3.6-3.16-.06-.13-.1-.26-.17-.39-1.22-2.24-2.86-4.34-4.74-6.07-1.44-1.32-3.02-2.51-4.73-3.46-2.92-5.25-5.77-10.58-8.25-16.05-.01-.03-.03-.06-.05-.09-.17-1.35-.33-2.7-.46-4.05-.69-7.05-.87-14.14-.59-21.22.05-1.25-.5-2.48-1.37-3.4-1.76-15.97-2.25-32.05-1.47-48.1.38-.98.39-2.3.15-3.18-.32-1.16-1.22-2.42-2.3-2.99-1.16-.61-2.57-.92-3.85-.5-.4.17-.8.34-1.19.5-.14.08-.26.17-.39.26-.78.5-1.39,1.2-1.79,2.04-1.34,1.77-2.68,3.55-4.03,5.32-.25-.03-.51-.04-.77-.03-.44-2.39-2.25-4.56-4.92-4.44-2.5.11-5.27,2.21-5,5,.53,5.56,1.06,11.12,1.6,16.67-.99-1.19-2.54-2-3.96-1.93-2.97.13-4.67,2.21-5,5-1.41,11.83,1.4,24.23,7.61,34.41-.35,4.83.12,9.77,1.39,14.47-.38.97-.5,2.08-.31,3.27,1.21,7.83,2.43,15.66,3.64,23.49.59,3.79.9,7.71,2.62,11.19,1.72,3.47,5.3,6.23,9.23,6.39,0,.01.01.03.02.04.26.34.52.67.78,1.01.62.62,1.36,1.05,2.21,1.29,2.94,1.09,5.89,2.17,8.83,3.26.13.02.26.04.4.05,7.05,3.13,14.1,6.26,21.15,9.39,1.58.7,3.47.79,4.97.04.53.37,1.07.74,1.6,1.11.67.47,1.47.69,2.29.7,3.95,1.51,7.89,3.02,11.84,4.52-2.94.15-5.88.4-8.81.79-1.38-.05-2.66.24-3.85.86-.49.16-.94.38-1.38.62-.93-.01-1.87.1-2.8.35-1.5.21-2.99.42-4.49.63-.9-.27-1.81-.4-2.69-.37-1.82.08-3.69.54-5.26,1.48-4.04.57-8.07,1.14-12.11,1.71-.99.14-2.02.67-2.97,1.37-5.97.48-11.96.66-17.94.51-.33-3.13-.66-6.27-1-9.4.06-1.72-.29-3.33-1.08-4.82-.5-1.55-1.37-2.89-2.58-4.02-1.13-1.22-2.47-2.08-4.02-2.58-1.22-.64-2.52-.98-3.89-1.05-.72-.16-1.47-.22-2.24-.21-.42-.48-.84-.96-1.28-1.42-2.17-2.29-5.72-3.66-8.84-3.66s-6.73,1.36-8.84,3.66c-2.19,2.38-3.81,5.51-3.66,8.84.13,2.93,1.03,5.59,2.82,7.86-2.27.6-4.52,1.26-6.68,2.14-2.26.92-4.54,1.81-6.55,3.22-3.07,2.14-5.18,4.21-7.28,7.29-2.09-.7-4.22-1.3-6.39-1.84-2.7-.66-5.38-.48-7.95.56-.9-.71-1.89-1.31-3-1.77-2.44-1.03-5.38-1.46-7.98-.67-.4-.56-.83-1.09-1.31-1.53-1.41-1.29-3.08-2.38-4.9-3.03.02-.22.04-.44.06-.66.24-3.92-.65-8.4-2.92-11.65-3.22-4.61-8.26-8.14-14.12-8.03-.94.02-1.87.12-2.78.29-.21-.03-.43-.06-.64-.09-2.26,0-4.36.58-6.31,1.71-.84.65-1.69,1.3-2.53,1.95-1.55,1.56-2.62,3.4-3.21,5.52-.55,1.49-1.1,2.97-1.65,4.46-.51,1.64-.59,3.28-.23,4.92-.07.29-.15.58-.22.88-1.22-.23-2.43-.22-3.65.02-3.84-.04-7.67-.29-11.49-.74-8.27-1.27-16.37-3.49-24.13-6.62-2.56-1.14-5.08-2.38-7.55-3.71,2.74-1.51,5.54-2.9,8.41-4.16.34-.15.67-.29,1.01-.44.27-.11.83-.34.95-.39.87-.35,1.75-.69,2.63-1.02,1.46-.54,2.94-1.05,4.43-1.53.88.03,1.79-.17,2.65-.62,6.99-3.71,13.98-7.41,20.97-11.12.98-.52,1.69-1.44,2.09-2.48.74-.19,1.4-.71,1.7-1.64,2.83-8.72,5.65-17.44,8.48-26.16.36-1.12-.29-2.38-1.31-2.88.07-.53.14-1.05.21-1.58.05-.35,0-.66-.1-.94.46-2.43.87-4.87,1.25-7.32.2.05.41.08.64.08,1.41,0,2.2-.95,2.38-2.03.43-.03.86-.06,1.29-.09,1.3-.09,2.56-1.08,2.5-2.5-.06-1.28-1.1-2.6-2.5-2.5-2.69.19-5.37.38-8.06.57-.08-.92-.19-1.84-.34-2.73-1.41-8.42-5.76-16.99-3.63-25.65.71-2.9-3.4-4.25-4.6-1.92-1.02-1.6-3.09-2.49-4.92-2.24-.12.02-.23.05-.35.07-.18-1.25-.36-2.51-.54-3.76-.08-.58-.67-1.22-1.15-1.49-.28-.16-.63-.27-.98-.32.63-5.41,1.27-10.81,1.9-16.22.16-1.34-1.26-2.5-2.5-2.5-1.48,0-2.34,1.15-2.5,2.5-1.25,10.68-2.5,21.36-3.76,32.04-.08.66.23,1.28.71,1.74-.04.21-.09.43-.11.65-1.38,13.7-2.76,27.41-4.15,41.11-2.49,5.4-4.98,10.81-7.47,16.21-.15.33-.27.67-.36,1.02-.36.21-.7.44-1,.75-.69.7-1.43,1.34-2.19,1.96-1.32.97-2.73,1.82-4.2,2.53-.58.31-1.05.74-1.4,1.29-.44.48-.74,1.05-.89,1.7-.11.36-.17.72-.18,1.08-3.16,2.37-6.41,4.61-9.77,6.68-3.7,2.29-7.52,4.39-11.44,6.3-1.83.89-3.69,1.73-5.56,2.54-.15.06-.51.21-.77.32-1.21-.02-2.41-.11-3.62-.31-1.33-.22-2.69.35-3.08,1.75-.07.26-.08.53-.06.81-.04-.67-.31-1.31-.81-1.75-.12-1.14-.92-2.19-2.4-2.19-.45,0-.83.11-1.16.27.48-2.28.49-4.64-.01-6.96-.27-1.27-1.81-2.13-3.04-1.75.05-.2.1-.4.15-.6.32-1.31-.42-2.71-1.75-3.08-.44-.12-.9-.1-1.33.02-.11-.34-.3-.66-.57-.94-.92-.92-2.62-1-3.54,0-6.01,6.57-7.28,16.1-3.22,24-.08.18-.18.36-.25.54-2.63.39-5.39,1.63-7.11,3.51-1.8,1.96-3.2,4.43-3.56,7.09-.78.26-1.46.85-1.58,1.67-1.76,11.86,2.79,24.34,12.24,31.88.21.17.45.31.69.42,1.22,1.76,2.51,3.46,3.89,5.1.52.62,1.24,1.15,2.03,1.58,1.19,1.21,2.65,2.19,4.29,2.48l5.27.96c1.01.78,2.16,1.39,3.48,1.85,5.5,1.93,11.01,3.86,16.51,5.8.67.39,1.4.72,2.18.97l6.52,2.1c.18.8.47,1.58.84,2.31-1.38.13-2.81.3-4.13.71-1.45.45-2.86,1.08-4.22,1.74-2.32,1.13-4.29,2.83-6.55,4.05-.54.17-1.04.38-1.52.65-.7-.4-1.51-.65-2.4-.65-2.62,0-5.12,2.3-5,5,.05,1.17.48,2.26,1.17,3.12-.98.92-1.61,2.2-1.55,3.58,0,.18.05.36.07.54-.06.32-.09.65-.07.99.04.93.33,1.79.78,2.55-.01.17-.02.34,0,.52.12,2.71,2.2,5,5,5,.18,0,.37-.01.55-.04.69.38,1.46.61,2.32.61.65,0,1.29-.15,1.89-.4.59.26,1.24.4,1.94.4.94,0,1.86-.3,2.66-.81.14.01.27.04.41.04,1.43,0,2.83-.69,3.78-1.76.44.06.88.12,1.31.18,1.43,0,2.78-.3,4.05-.87.02,0,.03-.01.05-.02.19.06.39.12.58.15,4.76.89,9.59,1.46,14.43,1.57.17.04.32.1.49.14,1.53,1.01,3.35,1.61,5.36,1.61.35,0,.69-.03,1.03-.07.94.3,1.95.47,3.02.47,1.6,0,3.17-.43,4.59-1.18,0,0,0,0,0,0,1.02.37,2.13.58,3.3.58,1.91,0,3.78-.62,5.38-1.65.91.28,1.89.44,2.91.44s1.95-.16,2.88-.46c.93.3,1.94.46,2.99.46,2.08,0,4.11-.74,5.8-1.95,1.14.47,2.38.73,3.72.73,1.04,0,2.06-.19,3.04-.52,1.41-.22,2.77-.77,3.98-1.55,2.87,1.51,6.2,1.64,9.02.47,1.21.55,2.52.86,3.81.73,1.55-.16,3.11-.32,4.66-.48,1.06.36,2.15.56,3.12.5,12.58-.74,25.17-1.49,37.75-2.23,1.9-.11,3.71-.59,5.29-1.54,1.43.32,2.86.33,4.28.03,3.11-.29,6.23-.25,9.35-.23l10.81.07c1.74.01,3.55-.53,5.1-1.43.53.22,1.08.44,1.67.64,1.49.51,3.06.8,4.61,1.06,7.43,1.24,14.87,2.41,22.3,3.62.14.02.27.04.41.06.21.14.41.29.63.42,1.56.9,3.24,1.36,5.05,1.37l32.1,4.1c.87.85,2.04,1.38,3.39,1.38.35,0,.69-.04,1.03-.12.33.07.67.12,1.03.12,2.62,0,5.12-2.3,5-5-.03-.66-.18-1.29-.42-1.88.69-1.39,1.1-2.94,1.04-4.37-.12-2.59-.97-5.27-2.93-7.07-.28-.21-.55-.43-.83-.64-.7-4.95-4.66-8.95-9.9-8.95-.8,0-1.6.12-2.37.32-.09-.09-.18-.17-.27-.25.76,0,1.52-.04,2.28-.12,2.57-.26,5.14-.61,7.62-1.38,1.3-.31,2.43-.91,3.4-1.79.42-.27.8-.59,1.15-.94.65.14,1.33.21,2.03.21,3.2,0,6.31-1.73,8.19-4.31.01,0,.03,0,.04,0,1.94,0,3.84-.63,5.46-1.7,3.43-.09,6.73-2.12,8.48-5.05,1.91-.4,3.67-1.24,5.1-2.67.03-.03.05-.06.08-.09,2.52-.69,4.78-2.38,6.15-4.6,1.19-.86,2.21-1.95,2.94-3.2.21-.1.41-.21.6-.34.86-.58,1.79-1.25,2.53-1.98,1.62-1.6,2.54-3.34,3.27-5.46.35-1.01.44-2.21.51-3.26.08-1.1-.2-2.3-.39-3.38,0-.04-.02-.07-.03-.11Z"/><circle class="cls-2" cx="131.07" cy="601.15" r="38.87"/><path class="cls-2" d="m542.38,623.41c-8.7-7.47-13.83-18.27-16.89-29.06-3.34-11.79-2.45-23.59-.5-35.75.66-4.1,1.54-8.63,3.25-12.74-22.55,13.82-32.36,41.87-21.72,65.22,11.17,24.5,41.02,35.41,67.2,25.08-11.48-1.89-22.59-5.23-31.34-12.75Z"/><path class="cls-7" d="m369.96,761.93c1.26-.91.91-3.42-1.07-3.42-.64,0-1.11.27-1.41.66-.68-.33-1.41-.51-2.18-.51-.39.05-.79.11-1.18.16-.57-5.44-1.46-10.96-4.22-15.76-1.72-2.99-4.16-5.46-7.07-7.3-1.94-1.23-4.08-2.14-6.24-2.94-.37-.23-.77-.42-1.21-.55-.42-.12-.84-.24-1.26-.36-.81-1.66-2.43-2.85-4.44-2.85s-3.76,1.23-4.57,2.95c-11.64-.1-23.24,6.93-28.28,17.46-.56,1.18-.75,2.55-.47,3.8-.29,1.22-.35,2.45-.29,3.69-.15-.01-.3-.03-.45-.03-2.62,0-5.12,2.3-5,5,0,.17.04.33.07.5-1.8,4.45.12,9.64,3.02,13.27,1.38,1.72,3.05,3.15,4.56,4.75.29.3.56.62.83.93-.08-.06.57.77.67.93.03.05.07.13.12.24,0,.02,0,.04,0,.07,1.19,5.42,4.29,10.18,8.5,13.64.15,1.51.99,2.9,2.4,3.84,5.92,3.97,12.79,6.44,19.97,5.16,5.49-.98,10.24-4.84,12.19-9.92,1.04-.66,1.85-1.68,2.18-2.87,3.1-4.08,5.79-8.37,7.85-13.08.19-.43.35-.85.46-1.26,2.07-.13,4.13-1.68,4.58-3.69.04-.17.05-.33.07-.5.26-.23.46-.52.56-.89.07-.24.13-.48.2-.72.4-.44.56-1.07.46-1.66.27-.98.55-1.96.82-2.94.06-.22.06-.44.04-.66.12-.54.03-1.13-.27-1.59.27-.56.4-1.16.38-1.8.02-.61-.1-1.19-.34-1.73Z"/><path class="cls-7" d="m506.78,1003.73c-1.44-8.03-7.36-15.64-15.7-16.79,1.07-1.36,1.13-2.98,1.25-4.91.15-2.48.26-4.97.18-7.45-.09-2.48-.37-4.98-.99-7.39-.61-2.35-1.7-4.41-2.71-6.59-.91-1.96-1.01-4.84-3.73-5.1-1.33-.13-2.44.57-3,1.6-.21-.02-.43-.01-.65.04-1.5.37-2.51,1.84-2.89,3.36-.43-.18-.91-.24-1.43-.13-1.25.28-1.67,1.45-1.69,2.6-.03,2.25,0,4.5,0,6.76-.84-.22-1.86.06-2.56.62-1.06.85-1.44,2.17-1.5,3.48-.1-.14-.22-.27-.37-.36-.28-.14-.56-.27-.85-.41-.14-.09-.3-.14-.46-.15-.11-.02-.21-.02-.32,0-16.38-7.69-33.33-16.47-44.17-31.5-5.38-7.46-8.56-15.99-9.7-25.11-.37-2.95-.55-5.91-.63-8.87-.11-.38-.19-.78-.22-1.23-.14-1.78-.17-3.56-.18-5.34-.04-.66-.06-1.33-.02-2,0-.09.02-.18.03-.27.02-1.4.04-2.79.05-4.19,0-.05,0-.1,0-.15-.14-.53-.15-1.05-.07-1.56-.36-9.89-.72-19.77-1.09-29.66-.19-5.16-.23-10.35-.65-15.49-.36-4.46-1.2-9.1-3.73-12.88-1.83-2.73-4.39-4.92-7.41-6-.75-.45-1.53-.84-2.35-1.15-.76-.28-1.58-.53-2.4-.59l-.03-.02c-.1-.06-.2-.09-.32-.09-.03,0-.06,0-.09,0-.1-.03-.21-.05-.31-.08,0,0-.01,0-.02,0,0,0,0,0,0,0-6.04-1.61-12.3-2.2-18.44-3.37-6.68-1.27-13.41-3.47-19.01-7.44-2.96-2.1-4.3-5-4.79-8.52-.33-2.37-.42-4.76-.74-7.12-.57-.13-1.12-.34-1.6-.59-.41-.22-.75-.52-1.06-.85-.03.03-.06.06-.09.08,0,.02,0,.03.01.04-.07.08-.13.16-.2.24-.53-.95-1.18-1.84-2-2.59-1.65-1.51-3.56-2.64-5.66-3.22-.1-.1-.19-.2-.29-.3-1.13-1.22-2.47-2.08-4.02-2.58-1.49-.78-3.1-1.14-4.82-1.08-1.11.15-2.22.3-3.32.45-2.12.59-3.96,1.67-5.52,3.21-.65.84-1.3,1.69-1.95,2.53-.56.96-.98,1.96-1.26,3-.13-.12-.26-.25-.37-.38-.86.64-1.84.93-2.82.92.27.25.52.51.79.75-.71,3.01-.22,6.11-.11,9.18.02.68.02,1.38-.03,2.08-.09.25-.14.5-.14.77,0,.12,0,.24,0,.36-.13.8-.33,1.58-.65,2.3-.15.02-.31.05-.46.13-7.1,3.56-14.22,7.12-21.74,9.72-3.75,1.3-7.58,2.35-11.49,3.02-3.09.53-6.22.82-9.32,1.32-5.82.95-11.9,2.85-15.21,8.11-1.87,2.97-2.52,6.49-2.89,9.92-.43,3.94-.64,7.91-.94,11.86-1.26,16.59-2.4,33.19-3.74,49.77-1.12,13.87-3.04,28.52-11.3,40.16-.29,0-.59.1-.85.38-5.6,5.86-12.33,10.52-18.97,15.12-6.32,4.38-13.23,8.67-21.11,9.11-.31.02-.56.13-.75.29-.08.05-.16.1-.22.16-.09-.39-.18-.78-.32-1.16-.3-.85-.71-1.77-1.36-2.41-.29-.29-.63-.47-.99-.55,0-.04,0-.08-.01-.12-.27-1.45-.63-2.88-1.09-4.28-.36-1.08-.82-2.2-1.78-2.88-.24-.17-.49-.29-.76-.38-.38-2.17-1.34-4.61-3.9-4.71-.01,0-.02,0-.03,0-.2-.9-.75-1.7-1.68-2.14-1.75-.83-3.81.19-4.42,1.97-.35,1.04-.29,2.1-.82,3.11-.5.96-1.2,1.8-1.83,2.68-1.34,1.89-2.19,4.05-2.62,6.32-.43,2.26-.52,4.57-.52,6.87,0,2.28.06,4.64,1.04,6.74.16.35.36.69.57,1.01-7.34,3.65-12.02,11.63-12.29,19.76-.16,4.78,1.44,9.12,3.91,13.15,2.77,4.5,5.92,8.88,9.47,12.8,3.56,3.94,7.69,7.27,12.38,9.76,4.79,2.54,9.94,4.31,15.05,6.09,5.09,1.77,10.1,3.76,15.16,5.63-1.35.15-2.68.42-3.96.84-2.41.79-4.51,2.33-5.22,4.74-3.34,0-6.93.74-9.79,2.45-1.55.93-2.81,2.66-2.26,4.55.31,1.07,1.1,1.91,2.03,2.54-.17.09-.34.17-.5.28-1,.68-1.7,1.75-1.49,2.99.1.58.37,1.07.73,1.49-.85.86-1.32,2.05-1.04,3.32.23,1.07.94,1.88,1.84,2.33-.19.42-.31.87-.33,1.33-.04.99.33,1.93.98,2.67,1.48,1.71,3.87,1.85,5.96,1.63.2-.02.39-.09.57-.18,2.27-.04,4.5-.5,6.72-.99,2.64-.59,5.28-1.08,7.99-1.26,5.53-.36,10.8.57,16.2,1.65,5.46,1.09,10.74,1.5,16.3.97,5.63-.53,11.25-1.3,16.87-1.97,6.18-.74,12.37-1.47,18.55-2.21.19.16.43.27.73.29,8.8.69,17.64.74,26.44.13,8.66-.59,17.3-1.48,25.94-2.25l14.33-1.27c.14.06.31.1.5.1,6.2,0,12.38-.53,18.48-1.57,23.44,4.23,46.96,8,70.55,11.32,1.64.23,3.28.46,4.92.68,1.42.2,2.89.53,4.32.32,2.25-.33,3.98-2.41,3.09-4.62.07-.05.15-.09.22-.15.94-.79,1.34-2.08,1.01-3.27-.27-.99-.97-1.75-1.75-2.38.39-.06.76-.19,1.06-.46.81-.72.65-1.83.6-2.81-.06-.99-.16-1.99-.41-2.95-.45-1.67-1.44-3.3-3-4.14-.23-.12-.46-.23-.7-.32.22-.38.26-.86.03-1.26-1.62-2.82-4.11-5.06-7.02-6.44,10.01-2.72,19.81-6.14,29-11.08,3.93-2.11,7.72-4.48,11.29-7.16,3.48-2.61,6.95-5.44,9.62-8.91,2.83-3.69,4.15-8.12,4.96-12.65.81-4.47,1.08-9.05.27-13.54Zm-94.74-108.56c.02.42.2.72.45.92-.27,6.06-.33,12.13.26,18.17.9,9.22,3.51,18.07,8.55,25.89,4.76,7.39,11.12,13.6,18.16,18.81,8.86,6.56,18.78,11.49,28.73,16.15.24.11.48.14.7.12.28.13.56.27.84.4.14.09.3.14.46.15.17.04.33.03.5-.02.11-.03.2-.09.29-.15-.58,2.88-.83,5.82-.69,8.75.03.67.55,1.25,1.25,1.25.65,0,1.28-.57,1.25-1.25-.15-3.24.17-6.45.94-9.59.07-.16.12-.33.12-.51,0,0,0-.01,0-.02,0-.02,0-.04.01-.05.06-.23.05-.43.01-.61.02-.23.07-.46.16-.7.04-.11.13-.27.22-.39,0,0,0,0,0,0,.03-.03.06-.06.08-.09,0,0,.04-.03.07-.06.03.25.06.49.08.74.24,2.26.31,4.54.24,6.81-.02.68.59,1.25,1.25,1.25.7,0,1.23-.57,1.25-1.25.05-1.49.03-2.97-.05-4.46-.04-.73-.1-1.45-.17-2.18-.04-.37-.06-.76-.1-1.14.54-.09,1.01-.48,1.01-1.19,0-2.05,0-4.09-.01-6.14,0-.5,0-1,0-1.5,0,0,0-.04,0-.09.1.12.21.23.26.31.23.37.43.75.6,1.15.66,1.55.9,3.27,1.06,4.93.2,2.03.36,4.07.54,6.11.06.67.53,1.25,1.25,1.25.63,0,1.31-.57,1.25-1.25-.22-2.5-.37-5.02-.7-7.52-.24-1.79-.63-3.64-1.47-5.26.11-.18.17-.4.15-.67-.05-.69.06-1.33.44-1.91.03-.05.21-.24.38-.41,0,.06.01.11.01.14,0,.82-.05,1.56.26,2.34.3.77.76,1.46,1.1,2.21.67,1.53.99,3.27,1.26,4.91.3,1.81.41,3.64.41,5.47,0,1.61,2.49,1.61,2.5,0,0-2.42-.22-4.84-.69-7.22-.23-1.16-.5-2.34-.91-3.45-.37-.98-1-1.86-1.34-2.84-.17-.49-.14-.99-.13-1.5.17-.26.24-.59.11-.98-.19-.58.25-1.35.92-.87.57.42.69,1.87.93,2.49.63,1.65,1.58,3.15,2.22,4.8,1.34,3.48,1.71,7.22,1.72,10.93,0,1.83-.08,3.66-.19,5.48-.05.89.02,1.98-.23,2.85-.27.92-1.2,1.43-1.98,1.9-3.01,1.8-6.58,2.37-10.03,2.64-1.82.14-3.66.26-5.49.23-1.28-.02-2.58-.16-3.69-.74.32-.65.16-1.52-.75-1.71-16.56-3.55-32.39-9.7-47.92-16.33-3.78-1.61-7.56-3.24-11.33-4.89-3.22-1.42-6.55-2.95-9.09-5.46-2.71-2.68-3.81-6.29-4.5-9.95-.78-4.13-1.34-8.3-2-12.45-1.4-8.86-2.8-17.72-4.2-26.58.05-.12.1-.24.15-.37.1-.24.11-.46.07-.65.06-.14.1-.3.1-.48.15-5.88-.16-11.76-.92-17.59.99.1,2.01.1,3.05-.04,6.23-.84,10.63-6,10.84-12.28l.42-12.31c-.15-1.11-.3-2.22-.45-3.32-.39-1.63-1.13-3.04-2.24-4.25-1.6-2.07-3.88-3.88-6.49-4.48,0,0-.02,0-.03,0-.07-.09-.15-.17-.22-.26-.05-.06-.09-.12-.13-.19-.02-.03-.05-.06-.07-.09,1.61.76,3.35,1.21,5.22,1.21,3.21,0,6.57-1.39,8.84-3.66,1.54-1.54,2.79-3.77,3.35-6.05.08.78.15,1.57.19,2.34.6,9.81.75,19.67,1.11,29.49.21,5.6.41,11.21.62,16.81Zm-21.12,80.36c-.36.1-.68.35-.84.79-3.29,8.97-11.61,14.59-18.7,20.39-7.24,5.92-13.44,12.97-18.17,21.05-2.7,4.62-4.51,9.43-4.09,14.87,0,.12.04.22.07.32h-.03c-9.75-2.02-19.39-4.59-28.85-7.7-1-3.91-2.05-7.82-3.69-11.53-1.7-3.84-4.13-7.15-7.27-9.92-.93-.82-1.89-1.61-2.86-2.39-.1-.21-.28-.39-.57-.52-.07-.03-.13-.06-.2-.09-2.19-1.72-4.45-3.38-6.68-5.02-3.7-2.73-7.79-5.02-11.3-7.99-3.52-2.97-6.22-6.73-8.02-10.96-.27-.63-.82-.76-1.31-.58.09-.25.18-.49.27-.74-.8-.73-1.4-1.7-1.63-2.85-.88,2.34-1.71,4.7-2.42,7.1-.91,3.07-1.6,6.2-2,9.36-7.33-.82-14.74-1.46-21.99-2.82-3.57-.67-7.12-1.58-10.5-2.91-3.02-1.19-5.89-2.68-9.08-3.24,6.66-2.67,13.33-5.32,19.93-8.13,3.8-1.62,7.57-3.33,11.22-5.26,3.3-1.75,6.87-3.6,9.35-6.46,2.45-2.83,3.59-6.56,4.9-10,1.46-3.83,2.86-7.7,3.95-11.65,1.2-4.32,1.95-8.72,2.16-13.21.13-2.76.17-5.88,1.59-8.3.01.19.04.38.06.57.45-1.06,1.25-1.96,2.39-2.44-.11-.4-.19-.82-.21-1.24-.04-.04-.07-.08-.11-.11-.07-.48-.1-.96-.16-1.45,2.15-.27,4.3-.53,6.46-.77,3.05-.34,6.11-.55,9.16-.34.73.15,1.44.34,2.15.56.37.2.73.41,1.09.63.12.11.24.21.36.33.49,1.73,1.43,3.4,2.65,4.8.07.12.11.25.19.37.13.26.26.52.39.78.79,1.46,1.86,2.63,3.22,3.51,1.21,1.1,2.62,1.85,4.25,2.24,1.66.52,3.32.6,4.98.22,1.66-.08,3.21-.57,4.65-1.48.84-.65,1.69-1.3,2.53-1.95,1.55-1.56,2.62-3.4,3.21-5.52.15-1.11.3-2.22.45-3.32,0-.5-.04-1-.1-1.48.92-.68,1.7-1.49,2.32-2.46.82-.89,1.43-1.9,1.86-3.02,1.71.6,3.48.82,5.35.65.81.29,1.66.5,2.57.62,1.37.18,2.72.13,4-.11,1.58,1.08,3.41,1.81,5.39,2.08,2.66.36,5.64.02,7.97-1.48,1.46-.94,2.65-2.05,3.61-3.34,2.09,0,4.22-.48,5.98-1.61,2.83-1.82,4.66-4.26,5.74-7.47.44-1.31.83-2.63,1.19-3.96.84.48,1.73.86,2.67,1.07,1.53.35,3.09.44,4.64.3.06.36.24.62.49.79.61,4.81.94,9.65.92,14.51-.07.03-.12.08-.18.12.1.85,0,1.71-.27,2.51.15.68.15,1.44-.04,2.26-.15.65-.22,1.35-.25,2.07.4.68.64,1.46.71,2.25.12-.33.24-.66.37-.99l3.17,20.05c.7,4.42,1.38,8.84,2.1,13.26.61,3.73,1.41,7.62,3.64,10.76,2.06,2.91,5.04,4.94,8.19,6.52,3.6,1.81,7.38,3.31,11.08,4.9,7.92,3.41,15.88,6.75,23.97,9.74,3.98,1.47,8,2.84,12.05,4.1-17.73,2.85-35.47,5.69-53.2,8.54-.81-7.79-3.17-15.24-5.82-22.58-.7.47-1.5.78-2.32.91.42,1.16.84,2.33,1.24,3.49Zm-211.56-.17c.02-3.59.3-7.38,2.26-10.5.94-1.49,2.16-2.78,2.81-4.44.29-.73.22-2.38.76-2.91.61-.6,1.41.07,1.08.8-.05.06-.11.1-.15.17-.64,1.05-.4,2.51-.65,3.68-1.01,4.61-4.29,9.02-2.76,13.91.48,1.53,2.89.88,2.41-.66-1.13-3.61,1.09-7.26,2.2-10.59.3-.89.55-1.8.7-2.73.08-.48.14-.97.17-1.46.01-.2-.03-.5.03-.72.04-.04.07-.08.1-.13,1.25-.64,1.73,1.57,1.91,2.61,0,0-.01,0-.02.01-1,.81-1.31,2.08-1.26,3.32.05,1.31.16,2.56-.03,3.87-.19,1.33-.53,2.63-.83,3.93-.61,2.61-1.08,5.21-.58,7.88.29,1.58,2.7.91,2.41-.66-.74-3.98,1.24-7.95,1.59-11.88.09-1.01,0-1.97-.05-2.98-.02-.38-.06-1.92.63-1.47.61.4.84,1.79,1.02,2.41.32,1.09.58,2.19.79,3.3.02.1.05.19.08.27-1.31,1.38-1.7,3.71-1.85,5.49-.21,2.58.2,5.17-.02,7.75-.06.67.62,1.25,1.25,1.25.72,0,1.19-.57,1.25-1.25.22-2.55-.18-5.09.02-7.64.08-1.04.28-2.1.7-3.06.01-.03.26-.46.44-.74.1.17.21.34.3.52.82,1.67.79,3.65.86,5.46.09,2.12.28,4.23,1.25,6.16.72,1.44,2.88.17,2.16-1.26-.78-1.54-.85-3.31-.92-5-.03-.79-.07-1.6-.13-2.41.07.05.15.09.23.12-.01-.04-.02-.08-.03-.13.14.05.31.08.5.07,8.21-.46,15.4-4.65,22.01-9.2,6.93-4.78,13.99-9.65,19.83-15.75.19-.2.29-.41.33-.63.12.13.26.24.36.37,2.62-3.6,4.77-7.5,6.42-11.73,2.57-6.6,3.91-13.6,4.8-20.61.95-7.52,1.37-15.11,1.93-22.67.63-8.61,1.29-17.21,1.95-25.82.32-4.23.64-8.46.97-12.69.03-.34.05-.67.07-1.01.52,1.22,1.27,2.31,2.28,3.25.13.14.27.26.4.38-.09.3-.18.59-.27.89-.92,2.99-.63,6.18-.58,9.26.04,2.47.79,4.76,2.05,6.69-.07,0-.14.02-.21.03-.42.12-.79.33-1.1.64-.13.17-.26.34-.39.51-.23.39-.34.81-.34,1.26v.72c-.01.34.06.67.22.96.1.31.27.58.52.8.23.24.49.42.8.52.3.16.62.23.96.22.22-.03.44-.06.66-.09.42-.12.79-.33,1.1-.64.13-.17.26-.34.39-.51.23-.39.34-.81.34-1.26.07.05.13.11.2.16.06.33.13.65.19.98,0,.36,0,.71.04,1.08.15,1.46.27,2.98.73,4.38.16.49.35.97.55,1.44.08.42.16.85.24,1.27.42,1,.84,1.99,1.26,2.99.62.81,1.25,1.62,1.87,2.43-1.1,1.92-1.79,4.16-1.7,6.22.14,3.23,1.21,6.59,3.66,8.84,2.27,2.08,5.63,4.05,8.84,3.66.77-.09,1.55-.19,2.32-.29.04.31.05.63.1.94,0,0,0,0,0,0-2.33,2.08-3.11,5.07-3.44,8.07-.4,3.69-.39,7.36-1.09,11.03-.76,3.94-1.93,7.79-3.25,11.58-1.29,3.69-2.55,7.52-4.24,11.05-1.7,3.55-4.58,5.66-7.91,7.58-3.59,2.06-7.31,3.86-11.08,5.54-7.7,3.42-15.58,6.44-23.38,9.59-4.46,1.8-8.91,3.6-13.37,5.4-4.43,1.79-8.85,3.76-13.54,4.79-.57.13-.85.53-.89.97-6.38,1.14-13.51-.96-18.71-4.64-1.37-.97-2.52-2.23-3.01-3.86-.53-1.75-.48-3.64-.47-5.45Zm272.98,84.93c.19.13.39.26.57.4.07.05.14.1.2.15-.15-.12.15.12.15.12.66.54,1.27,1.13,1.82,1.77.13.15.25.3.38.45.02.03.14.19.14.19.06.09.12.17.19.26.07.09.12.19.18.29-.78-.23-1.55-.47-2.33-.7-1.54-.47-2.2,1.95-.66,2.41,1.53.46,3.1.87,4.61,1.4,1.07.37,1.77,1.24,2.14,2.24.23.64.38,1.31.45,1.99.01.13.06,1.06.09,1.7-.43-.02-.85-.05-1.27-.09-.74-.08-1.47-.25-2.18-.44-.92-.25-1.52.49-1.54,1.22-.17.55,0,1.16.53,1.46.95.55,1.9,1.1,2.84,1.67.17.1.34.21.5.32.08.06.17.11.25.17.03.02.06.04.08.06.01,0,0,0,.03.02.17.14.33.28.48.44.07.07.13.14.19.21.02.03.04.06.06.09.05.08.09.16.14.24.01.02,0,.01.01.02,0,0,0,0,0,.01.02.09.05.17.07.26,0,0,0,0,0,.01,0,.02,0,.04,0,.06,0,.01,0,.04,0,.07,0,0,0,0,0,0,0,.03-.02.08-.03.14,0,0,0,0,0,0-.02.02-.03.05-.04.08,0-.01,0,0,0,0,0,.01-.01.02-.02.03,0,0,0,0,0,0-.01.02-.02.03-.04.05-.06.06-.13.12-.19.18,0,0,0,0,0,0,0,0-.02.01-.03.02-.08.05-.15.09-.23.14-.01,0-.03.02-.05.03,0,0,0,0-.02,0-.1.03-.2.07-.31.09-.02,0-.07.02-.12.03-.05,0-.15.02-.18.02-.11,0-.21,0-.31,0,0,0-.03,0-.06,0-.04,0-.12-.02-.13-.03-.13-.03-.27-.06-.4-.1-.13-.04-.25-.09-.38-.13-.07-.03-.13-.06-.2-.09-.54-.26-1.04-.58-1.54-.9-.48-.31-1.17-.16-1.55.26-.54.42-.77,1.21-.11,1.8,1.41,1.27,3.05,2.06,4.88,2.37-.26.59-1.7.69-2.11.68-1.38-.06-2.76-.34-4.13-.53-2.62-.36-5.25-.73-7.87-1.11-5.32-.76-10.65-1.55-15.96-2.36-10.64-1.62-21.26-3.33-31.86-5.14-4.01-.68-8.02-1.4-12.03-2.11.21-.05.42-.09.62-.14,8.43-2.04,16.8-4.33,25.26-6.23,4.59-1.03,9.19-1.99,13.8-2.9.2.07.43.1.69.05,7.49-1.54,15.03-3.1,22.47-5,.14.33.41.61.79.73.2.07.4.13.6.21.12.04.24.09.36.14.02,0,.04.02.06.03.4.18.8.37,1.19.58.37.2.73.42,1.09.66Zm51.75-43.69c-.77,4.28-1.95,8.53-4.68,12.01-2.57,3.27-5.94,5.98-9.27,8.44-3.36,2.48-6.9,4.69-10.58,6.67-7.53,4.07-15.56,7.12-23.75,9.57-9.78,2.93-19.79,5.01-29.78,7.07-.2-.07-.42-.1-.68-.05-8.55,1.67-17.06,3.54-25.51,5.62-8.27,2.03-16.45,4.51-24.9,5.69-4.54.63-9.13.93-13.72.96-.18-.12-.42-.18-.7-.15-8.83.78-17.66,1.57-26.49,2.35-8.62.77-17.22,1.61-25.88,1.66-4.78.03-9.55-.15-14.31-.5-.19-.28-.52-.47-.99-.41-11.25,1.34-22.5,2.75-33.77,4.01-5.66.63-11.07.66-16.68-.42-5.29-1.02-10.48-2.15-15.9-2.05-2.92.06-5.85.4-8.71.99-3.08.64-6.1,1.5-9.28,1.34-.37-.02-.65.1-.85.3-1.04.01-2.11-.16-2.73-1-.25-.34-.36-.87-.14-1.25.17-.3.51-.49.69-.79.28-.45.3-.86.2-1.38-.14-.7-.92-.98-1.54-.87-.48.09-.98-.42-1.04-.87-.08-.61.43-1.2.97-1.39,1.05-.37,1.19-1.65.3-2.28-.28-.2-1.04-.66-.92-1.08.13-.44,1.05-.69,1.4-.8.75-.23,1.52-.32,2.29-.35.7.09,1.41.11,2.13.04.29.02.58.04.86.06.82.06,1.21-.56,1.2-1.2.04-.19.04-.38-.01-.56-.19-.69-.87-1.01-1.54-.87-.2.04-.4.05-.61.07-.65-.04-1.32-.06-1.99-.05-.69-.12-1.37-.32-1.99-.64-1.04-.54-2.6-1.57-1.45-2.8.53-.57,1.32-.9,2.02-1.2.8-.34,1.63-.62,2.47-.84,1.79-.48,3.62-.67,5.48-.62.43.01.74-.16.94-.41.35-.22.57-.61.62-1.05.25-2.14,2.67-3.15,4.46-3.62,2.54-.66,5.16-.79,7.76-.49.34.04.65-.12.88-.37,3.95,1.25,7.95,2.32,12.02,3.18,12.92,2.72,26.13,3.65,39.28,4.56,1.61.11,1.6-2.39,0-2.5-11.21-.78-22.44-1.56-33.52-3.49-5.49-.96-10.94-2.2-16.26-3.86-5.38-1.67-10.59-3.81-15.86-5.78-9.68-3.63-20.15-6.2-28.18-13.07-3.83-3.28-7.05-7.19-9.96-11.29-2.81-3.96-5.88-8.15-6.87-13.01-1.77-8.76,3.06-18.3,11.11-22.1,2.31,2.16,5.57,3.53,8.35,4.57,4.99,1.87,10.5,2.52,15.67,1,.55-.16.81-.57.86-1.01,3.43-.95,6.72-2.33,10.02-3.66,4.07-1.65,8.14-3.29,12.21-4.94.41-.16.81-.33,1.22-.49.03.6.43,1.22,1.19,1.28,3.71.3,7.02,2.29,10.45,3.58,3.48,1.31,7.11,2.19,10.76,2.83,7.1,1.26,14.33,1.92,21.5,2.72-.05.62-.08,1.24-.1,1.86-.05,1.61,2.45,1.61,2.5,0,.02-.71.07-1.41.13-2.12.21-.32.25-.77.11-1.17.44-4.02,1.43-7.94,2.68-11.79,1.52,3.48,3.67,6.68,6.34,9.39,3.04,3.08,6.78,5.26,10.31,7.71.82.57,1.64,1.15,2.45,1.74-1.02-.38-2.03-.75-3.06-1.1-2.01-.7-4.03-1.37-6.07-2-2.13-.66-4.3-1.42-6.57-1.29-1.6.1-1.61,2.6,0,2.5,2.18-.13,4.29.69,6.34,1.33,1.89.59,3.76,1.21,5.63,1.87,3.81,1.33,7.57,2.81,11.27,4.4.3.23.6.47.89.7,3.33,2.63,6.23,5.52,8.23,9.3,1.86,3.52,2.98,7.37,3.98,11.21-11.57-4.7-23.13-9.39-34.7-14.09-11.89-4.83-23.76-10.3-36.28-13.28-6.84-1.63-13.91-2.4-20.92-1.62-1.58.18-1.6,2.68,0,2.5,12.6-1.4,24.89,2.3,36.53,6.76,12.27,4.7,24.39,9.84,36.57,14.78,6.9,2.8,13.8,5.6,20.7,8.41.11.04.21.07.3.08,8.3,2.73,16.72,5.04,25.24,6.93-5.47,2.09-10.91,4.24-16.16,6.86-5.79,2.89-11.38,6.3-17.75,7.79-1.57.37-.9,2.78.66,2.41,5.55-1.3,10.58-4.02,15.6-6.64,5.24-2.73,10.63-5.05,16.14-7.18,1.99-.77,3.99-1.52,5.99-2.28.22.04.43.09.65.14.78.16,1.32-.36,1.49-.95,2.93-1.12,5.84-2.26,8.73-3.49,5.48-2.34,10.83-4.96,16.18-7.58,6.24-3.05,12.49-6.07,18.97-8.59.21-.08.38-.21.51-.35.06-.02.11-.04.17-.07,14.85-7.81,31.39-12.15,48.16-12.65,1.61-.05,1.61-2.55,0-2.5-17.21.52-34.17,4.98-49.42,12.99-.15.08-.26.18-.36.28-11.11,4.35-21.58,10.12-32.46,14.99-3.41,1.53-6.89,2.9-10.38,4.25-.21-4.69,1.31-8.78,3.66-12.82,2.31-3.99,5-7.76,8.02-11.24.04-.04.07-.08.11-.12.35.07.73,0,1.06-.34,1.29-1.3,2.94-1.99,4.64-2.59,2.04-.72,4.1-1.41,6.15-2.11,4.23-1.45,8.46-2.9,12.69-4.35,1.51-.52.86-2.93-.66-2.41-4.53,1.55-9.07,3.11-13.6,4.66-1.55.53-3.23,1.01-4.88,1.58,1.47-1.37,2.97-2.69,4.53-3.96,3.7-3.02,7.56-5.87,10.96-9.23,3.14-3.1,5.83-6.61,7.6-10.64,1.72,5.36,3.09,10.85,3.55,16.48.06.68.54,1.07,1.07,1.17.25.15.55.23.9.18,19.6-3.15,39.19-6.29,58.79-9.44.1-.02.2-.04.28-.08,2.86.8,5.73,1.54,8.62,2.2.04.2.14.41.32.59,2.93,3.11,7.91,2.44,11.76,2.17,3.92-.28,8.05-.89,11.49-2.89.2.26.51.44.92.46,7.68.33,13.08,7.2,14.6,14.23.92,4.28.68,8.79-.1,13.08Z"/><path class="cls-11" d="m359.97,754.27c-4.92-4.68-11.97-3.7-18.05-2.56-.7.13-.95.67-.89,1.21-.04.12-.06.25-.06.39v1.63c0,.82.79,1.41,1.58,1.21,5.33-1.4,10.92-1.33,16.21.2,1.19.34,2.12-1.23,1.22-2.09Z"/><path class="cls-11" d="m310.81,754.27c4.92-4.68,11.97-3.7,18.05-2.56.7.13.95.67.89,1.21.04.12.06.25.06.39v1.63c0,.82-.79,1.41-1.58,1.21-5.33-1.4-10.92-1.33-16.21.2-1.19.34-2.12-1.23-1.22-2.09Z"/><path class="cls-13" d="m339.53,777.07c-2.62.55-5.33.5-7.92-.13-.78-.19-1.11,1.02-.33,1.21,2.82.69,5.75.73,8.59.13.79-.16.45-1.37-.33-1.21Z"/><path class="cls-9" d="m343.37,785.98c-1.46-.43-2.92-.89-4.39-1.3-1.14-.32-2.43-.41-3.42.29-.99-.7-2.27-.6-3.42-.29-1.47.41-2.93.86-4.39,1.3-.62.18-.52,1-.05,1.19,0,0,0,0,0,0,1.51,2.9,4.61,4.86,7.89,4.9,3.28.03,6.42-1.89,7.98-4.76.06-.11.07-.21.07-.31.25-.31.22-.87-.28-1.02Z"/><path class="cls-10" d="m342.36,786.33c-2.32.57-4.69,1.13-7.1.89-2.22-.22-4.37-.9-6.62-.6-.32.04-.18.52.13.48,2.36-.32,4.65.52,6.99.65,2.28.13,4.53-.42,6.73-.95.31-.08.18-.56-.13-.48Z"/><path class="cls-6" d="m321.9,833.89c-6.48.02-12.86-1.15-18.92-3.43-1.51-.57-2.16,1.85-.66,2.41,6.25,2.35,12.9,3.53,19.58,3.52,1.61,0,1.61-2.5,0-2.5Z"/><path class="cls-6" d="m367.28,831.2c-.37-.64-1.09-.72-1.71-.45-5.47,2.37-11.5,3.24-17.42,2.64-1.6-.16-1.59,2.34,0,2.5,6.39.64,12.8-.43,18.68-2.98.62-.27.75-1.17.45-1.71Z"/><path class="cls-4" d="m459.05,1069.08c-.42-.77-1.38-1.22-2.21-1.38-.44-.08-.89-.13-1.34-.08-.27.03-.55.06-.82.14-.14.04-.27.08-.4.14-.41.07-.69.32-.84.64-.05.09-.1.19-.12.28-.02.06,0,.12-.01.18-.27.61-.12,1.34.32,1.83.4.46.98.58,1.55.65.75.09,1.5.2,2.25.26.66.06,1.27-.28,1.61-.83.34-.54.29-1.27,0-1.82Z"/><path class="cls-4" d="m459.09,1077.34s0-.03,0-.04c-.04-.14-.1-.29-.18-.42-.17-.26-.39-.5-.67-.63-.14-.07-.29-.13-.44-.17-.16-.04-.34-.06-.5-.07-.32-.04-.64-.06-.96-.09-.17,0-.33.03-.48.11-.15.05-.29.14-.4.26-.12.11-.21.25-.26.4-.08.15-.11.31-.11.48,0,.08.03.16.05.25,0,.08.02.15.05.22,0,0,0,0,0,0,.11.36.36.67.77.79.02.02.03.04.04.05.07.09.14.18.23.25.25.22.48.37.79.47.02,0,.04.01.06.02.12.03.26.04.38.05.15.01.33-.02.46-.05.14-.03.27-.1.4-.15.13-.06.25-.16.36-.26.02-.01.03-.03.04-.05.07-.09.16-.18.22-.28,0-.01.01-.02.02-.03.04-.08.1-.23.13-.31.04-.12.05-.27.06-.39,0-.03,0-.05,0-.07,0-.09-.03-.25-.05-.34Z"/><path class="cls-4" d="m457.95,1081.85c-.07-.08-.13-.17-.2-.25-.16-.15-.34-.26-.55-.32-.37-.08-.73-.16-1.1-.23-.17-.05-.33-.06-.5-.02-.17,0-.32.06-.46.15-.15.08-.26.19-.35.32-.11.12-.19.26-.22.43-.01.11-.03.22-.04.33,0,.23.06.44.17.63.07.08.13.17.2.25.16.15.34.26.55.32.37.08.73.16,1.1.23.17.05.33.06.5.02.17,0,.32-.06.46-.15.15-.08.26-.19.35-.32.11-.12.19-.26.22-.43.01-.11.03-.22.04-.33,0-.23-.06-.44-.17-.63Z"/><path class="cls-4" d="m207.04,1068.43c-.04-.1-.08-.2-.13-.3-.11-.19-.26-.34-.45-.45-.1-.04-.2-.08-.3-.13-.22-.06-.44-.06-.66,0-.41.09-.81.19-1.22.28-.16.04-.3.11-.43.22-.14.09-.24.21-.32.35-.09.14-.14.3-.15.46-.04.17-.03.33.02.5l.13.3c.11.19.26.34.45.45.1.04.2.08.3.13.22.06.44.06.66,0,.41-.09.81-.19,1.22-.28.16-.04.3-.11.43-.22.14-.09.24-.21.32-.35.09-.14.14-.3.15-.46.04-.17.03-.33-.02-.5Z"/><path class="cls-4" d="m207.14,1072.32c-.17-.26-.43-.51-.75-.57-.26-.05-.52-.11-.77-.16-.17-.05-.33-.06-.5-.02-.07,0-.13.02-.19.03-.15-.01-.3-.03-.46-.04-.17,0-.33.03-.48.11-.15.05-.29.14-.4.26-.12.11-.21.25-.26.4-.08.15-.11.31-.11.48.01.32.12.66.37.88.08.07.17.13.25.2.19.11.41.17.63.17.53.05,1.06.1,1.59.14.17,0,.33-.03.48-.11.15-.05.29-.14.4-.26.07-.08.13-.17.2-.25.09-.14.14-.3.15-.46.03-.11.03-.22,0-.33,0-.17-.06-.32-.15-.46Z"/><path class="cls-4" d="m209.15,1077.4c0-.11-.03-.22-.09-.32-.05-.15-.14-.29-.26-.4-.25-.23-.54-.36-.88-.37-.47,0-.95-.02-1.42-.03-.17,0-.33.03-.48.11-.15.05-.29.14-.4.26-.12.11-.21.25-.26.4-.08.15-.11.31-.11.48,0,.06.03.11.03.17,0,.02-.01.05-.01.07-.04.17-.03.33.02.5.1.3.29.59.57.75.3.16.63.21.96.13.47-.13.95-.25,1.42-.38.16-.04.3-.11.43-.22.14-.09.24-.21.32-.35.04-.1.08-.2.13-.3.05-.17.06-.33.02-.5Z"/><path class="cls-4" d="m208.64,1062.23c-.2-.84-.93-1.49-1.73-1.75-.5-.16-1.02-.12-1.53-.04-.44.07-.86.26-1.26.44-.09.04-.18.11-.25.2-.11.06-.21.13-.28.2-.22.22-.38.57-.37.88,0,.11.04.22.07.33-.02.09-.04.19-.03.28.01.32.12.67.37.88.57.5,1.15.96,1.88,1.19.69.22,1.53.14,2.15-.26.81-.51,1.21-1.42.99-2.37Z"/><path class="cls-8" d="m356.82,792.1c-.33.5.57-.67.57-.68.38-.46.76-.94,1.1-1.43.51-.73.94-1.52,1.33-2.32.99-2.04,1.88-4.16,2.41-6.37.15-.63.18-1.26.1-1.88.07-.04.13-.08.2-.11.1-.05.2-.07.3-.06.18-.16.44-.24.71-.12,3.39,1.43,5.56,4.7,6.47,8.17.57,2.17.7,4.44.68,6.68-.02,2.25-.08,4.55-.44,6.78-.56,3.52-2.6,7.37-6.47,7.97-3.87.61-6.62-2.79-7.74-6.07-.97-2.83-1.28-5.86-1.05-8.84.71-.42,1.34-.99,1.82-1.71Zm2.82,4.86c.5,1.1,1.12,2.51,2.11,3.26.93.7,2.17.33,2.97-.4.95-.85,1.35-2.17,1.61-3.37.51-2.43.24-4.99-.59-7.31-.36-1-.86-1.96-1.45-2.85-.45-.31-.91-.61-1.36-.92,0,0-.01,0-.02.01-2.27,3.31-3.46,7.19-3.43,11.18.05.13.1.26.16.39Z"/><path class="cls-4" d="m458.33,1073.49c-.04-.1-.08-.2-.13-.3-.07-.08-.13-.17-.2-.25-.11-.12-.25-.21-.4-.26-.15-.08-.31-.11-.48-.11l-1.24-.16c-.17,0-.33.03-.48.11-.15.05-.29.14-.4.26-.12.11-.21.25-.26.4-.08.15-.11.31-.11.48.01.11.03.22.04.33.03.12.08.22.15.32.03.09.06.18.11.26.07.08.13.17.2.25.16.15.34.26.55.32.19.07.4.09.6.11.1.01.21.01.31,0,.2-.02.41-.04.6-.11.19-.07.39-.14.56-.25.08-.07.17-.13.25-.2.12-.11.21-.25.26-.4.06-.1.08-.2.09-.32.04-.17.03-.33-.02-.5Z"/><path class="cls-8" d="m315.36,794.17c.33.5-.57-.67-.57-.68-.38-.46-.76-.94-1.1-1.43-.51-.73-.94-1.52-1.33-2.32-.99-2.04-1.88-4.16-2.41-6.37-.15-.63-.18-1.26-.1-1.88-.07-.04-.13-.08-.2-.11-.1-.05-.2-.07-.3-.06-.18-.16-.44-.24-.71-.12-3.39,1.43-5.56,4.7-6.47,8.17-.57,2.17-.7,4.44-.68,6.68.02,2.25.08,4.55.44,6.78.56,3.52,2.6,7.37,6.47,7.97,3.87.61,6.62-2.79,7.74-6.07.97-2.83,1.28-5.86,1.05-8.84-.71-.42-1.34-.99-1.82-1.71Zm-2.82,4.86c-.5,1.1-1.12,2.51-2.11,3.26-.93.7-2.17.33-2.97-.4-.95-.85-1.35-2.17-1.61-3.37-.51-2.43-.24-4.99.59-7.31.36-1,.86-1.96,1.45-2.85.45-.31.91-.61,1.36-.92,0,0,.01,0,.02.01,2.27,3.31,3.46,7.19,3.43,11.18-.05.13-.1.26-.16.39Z"/><path class="cls-7" d="m266.12,940.47c-2.45-2.25-5.45-3.66-8.84-3.66-3.21,0-6.57,1.39-8.84,3.66s-3.8,5.73-3.66,8.84c.14,3.23,1.21,6.59,3.66,8.84,2.45,2.25,5.45,3.66,8.84,3.66,3.21,0,6.57-1.39,8.84-3.66s3.8-5.73,3.66-8.84c-.14-3.23-1.21-6.59-3.66-8.84Z"/><circle class="cls-3" cx="131.07" cy="602.4" r="38.87"/><path class="cls-2" d="m97.49,598.03c-.8,0-.81,1.25,0,1.25s.81-1.25,0-1.25Z"/><path class="cls-2" d="m99.92,597.85c-.8,0-.81,1.25,0,1.25s.81-1.25,0-1.25Z"/><path class="cls-2" d="m99.17,599.9c-.8,0-.81,1.25,0,1.25s.81-1.25,0-1.25Z"/><path class="cls-2" d="m97.3,591.11c-.8,0-.81,1.25,0,1.25s.81-1.25,0-1.25Z"/><path class="cls-2" d="m95.99,592.98c-.8,0-.81,1.25,0,1.25s.81-1.25,0-1.25Z"/><path class="cls-2" d="m98.24,592.79c-.8,0-.81,1.25,0,1.25s.81-1.25,0-1.25Z"/><path class="cls-2" d="m94.87,601.59c-.8,0-.81,1.25,0,1.25s.81-1.25,0-1.25Z"/><path class="cls-2" d="m94.12,604.02c-.8,0-.81,1.25,0,1.25s.81-1.25,0-1.25Z"/><path class="cls-2" d="m96.74,603.27c-.8,0-.81,1.25,0,1.25s.81-1.25,0-1.25Z"/><path class="cls-2" d="m97.38,607.27c-.8,0-.81,1.25,0,1.25s.81-1.25,0-1.25Z"/><path class="cls-2" d="m98.88,588.13c-.8,0-.81,1.25,0,1.25s.81-1.25,0-1.25Z"/><path class="cls-3" d="m544.94,620.31c-8.7-7.47-13.83-18.27-16.89-29.06-3.34-11.79-2.45-23.59-.5-35.75.66-4.1,1.54-8.63,3.25-12.74-22.55,13.82-32.36,41.87-21.72,65.22,11.17,24.5,41.02,35.41,67.2,25.08-11.48-1.89-22.59-5.23-31.34-12.75Z"/><path class="cls-2" d="m506.87,591.31c-.8,0-.81,1.25,0,1.25s.81-1.25,0-1.25Z"/><path class="cls-2" d="m508.59,592c-.8,0-.81,1.25,0,1.25s.81-1.25,0-1.25Z"/><path class="cls-2" d="m507.22,593.38c-.8,0-.81,1.25,0,1.25s.81-1.25,0-1.25Z"/><path class="cls-2" d="m507.22,596.65c-.8,0-.81,1.25,0,1.25s.81-1.25,0-1.25Z"/><path class="cls-2" d="m508.94,597.85c-.8,0-.81,1.25,0,1.25s.81-1.25,0-1.25Z"/><path class="cls-2" d="m507.91,599.23c-.8,0-.81,1.25,0,1.25s.81-1.25,0-1.25Z"/><path class="cls-2" d="m509.97,601.3c-.8,0-.81,1.25,0,1.25s.81-1.25,0-1.25Z"/><path class="cls-2" d="m509.63,603.54c-.8,0-.81,1.25,0,1.25s.81-1.25,0-1.25Z"/><path class="cls-2" d="m510.83,605.95c-.8,0-.81,1.25,0,1.25s.81-1.25,0-1.25Z"/><path class="cls-2" d="m511.35,604.57c-.8,0-.81,1.25,0,1.25s.81-1.25,0-1.25Z"/><path class="cls-2" d="m506.18,588.72c-.8,0-.81,1.25,0,1.25s.81-1.25,0-1.25Z"/><path class="cls-2" d="m510.15,595.1c-.8,0-.81,1.25,0,1.25s.81-1.25,0-1.25Z"/><path class="cls-2" d="m508.25,589.24c-.8,0-.81,1.25,0,1.25s.81-1.25,0-1.25Z"/><path class="cls-2" d="m511.87,608.71c-.8,0-.81,1.25,0,1.25s.81-1.25,0-1.25Z"/><path class="cls-2" d="m513.25,607.16c-.8,0-.81,1.25,0,1.25s.81-1.25,0-1.25Z"/><path class="cls-2" d="m512.62,610.78c-.8,0-.81,1.25,0,1.25s.81-1.25,0-1.25Z"/><path class="cls-2" d="m514.08,612.35c-.8,0-.81,1.25,0,1.25s.81-1.25,0-1.25Z"/><path class="cls-2" d="m506.65,586.52c-.8,0-.81,1.25,0,1.25s.81-1.25,0-1.25Z"/><path class="cls-2" d="m105.98,628.78c-.8,0-.81,1.25,0,1.25s.81-1.25,0-1.25Z"/><path class="cls-2" d="m108.04,630.55c-.8,0-.81,1.25,0,1.25s.81-1.25,0-1.25Z"/><path class="cls-2" d="m108.04,628.78c-.8,0-.81,1.25,0,1.25s.81-1.25,0-1.25Z"/><path class="cls-2" d="m110.7,632.61c-.8,0-.81,1.25,0,1.25s.81-1.25,0-1.25Z"/><path class="cls-2" d="m113.06,634.09c-.8,0-.81,1.25,0,1.25s.81-1.25,0-1.25Z"/><path class="cls-2" d="m103.62,627.3c-.8,0-.81,1.25,0,1.25s.81-1.25,0-1.25Z"/><path class="cls-2" d="m112.47,632.61c-.8,0-.81,1.25,0,1.25s.81-1.25,0-1.25Z"/><path class="cls-2" d="m115.12,635.86c-.8,0-.81,1.25,0,1.25s.81-1.25,0-1.25Z"/><path class="cls-2" d="m517.77,617.53c-.8,0-.81,1.25,0,1.25s.81-1.25,0-1.25Z"/><path class="cls-2" d="m519.79,617.42c-.8,0-.81,1.25,0,1.25s.81-1.25,0-1.25Z"/><path class="cls-2" d="m519.36,619.23c-.8,0-.81,1.25,0,1.25s.81-1.25,0-1.25Z"/><path class="cls-2" d="m521.07,620.93c-.8,0-.81,1.25,0,1.25s.81-1.25,0-1.25Z"/><path class="cls-2" d="m521.07,619.02c-.8,0-.81,1.25,0,1.25s.81-1.25,0-1.25Z"/><path class="cls-2" d="m523.09,621.36c-.8,0-.81,1.25,0,1.25s.81-1.25,0-1.25Z"/><path class="cls-2" d="m523.62,623.59c-.8,0-.81,1.25,0,1.25s.81-1.25,0-1.25Z"/><path class="cls-2" d="m525.25,624.48c-.8,0-.81,1.25,0,1.25s.81-1.25,0-1.25Z"/><g><polygon class="cls-3" points="130.09 565.24 131.37 557.2 132.65 565.24 130.09 565.24"/><polygon class="cls-3" points="137 564.68 139.85 560.77 140.61 565.53 137 564.68"/><polygon class="cls-3" points="155.78 573.94 162.43 569.15 157.6 575.73 155.78 573.94"/><polygon class="cls-3" points="149.8 569.69 153.82 566.79 152.94 571.64 149.8 569.69"/><polygon class="cls-3" points="163.84 584.86 171.55 582.05 165.09 587.08 163.84 584.86"/><polygon class="cls-3" points="144.46 566.66 149.29 560.08 146.75 567.82 144.46 566.66"/><polygon class="cls-3" points="159.6 577.92 164.52 576.95 161.62 581.01 159.6 577.92"/><polygon class="cls-3" points="166.42 591.32 171.41 591.78 167.46 594.85 166.42 591.32"/><polygon class="cls-3" points="168.68 597.61 176.79 598.88 168.68 600.15 168.68 597.61"/><polygon class="cls-3" points="95.43 591.2 87.27 590.22 94.73 593.65 95.43 591.2"/><polygon class="cls-3" points="94.53 598.68 89.96 600.33 94.37 602.35 94.53 598.68"/><polygon class="cls-3" points="98.38 619.11 91.91 624.13 99.62 621.33 98.38 619.11"/><polygon class="cls-3" points="95.89 612.24 91.98 615.28 96.93 615.77 95.89 612.24"/><polygon class="cls-3" points="106.77 629.78 101.94 636.36 108.58 631.57 106.77 629.78"/><polygon class="cls-3" points="94.41 606.33 86.7 609.13 94.91 608.82 94.41 606.33"/><polygon class="cls-3" points="101.2 623.84 98.91 628.26 103.64 626.6 101.2 623.84"/><polygon class="cls-3" points="112.34 634 111.42 638.89 115.48 635.96 112.34 634"/><polygon class="cls-3" points="118.77 637 117.78 645.08 121.24 637.69 118.77 637"/><polygon class="cls-3" points="168.11 609.9 175.89 612.5 167.68 612.41 168.11 609.9"/><polygon class="cls-3" points="167.03 614.26 170.44 617.7 165.57 617.65 167.03 614.26"/><polygon class="cls-3" points="154.68 631.06 158.33 638.36 152.59 632.54 154.68 631.06"/><polygon class="cls-3" points="159.91 625.92 162.12 630.34 157.44 628.67 159.91 625.92"/><polygon class="cls-3" points="140.66 637.83 142.16 645.84 138.24 638.68 140.66 637.83"/><polygon class="cls-3" points="163.81 621.22 169.55 627.04 162.28 623.26 163.81 621.22"/><polygon class="cls-3" points="149.82 635 150.54 639.92 146.61 636.84 149.82 635"/><polygon class="cls-3" points="130.74 639.3 128.89 643.92 127.03 639.3 130.74 639.3"/><polygon class="cls-3" points="97.07 586.55 94.05 582.77 98.88 583.34 97.07 586.55"/><polygon class="cls-3" points="113.69 569.18 110.85 561.54 115.93 567.93 113.69 569.18"/><polygon class="cls-3" points="107.14 573.36 106.44 568.48 110.35 571.52 107.14 573.36"/><polygon class="cls-3" points="102.02 579.04 96.94 572.64 103.77 577.17 102.02 579.04"/><polygon class="cls-3" points="120.57 566.14 120.97 561.18 124.12 565.05 120.57 566.14"/><polygon class="cls-3" points="168.76 602.91 173.02 605.54 168.1 606.53 168.76 602.91"/></g><path class="cls-12" d="m347.49,728.27c-.2-.6-.57-1.19-1.15-1.49-.38-.2-.76-.29-1.16-.3.18-.44.38-.87.56-1.29.21-.51.42-1.02.63-1.53.07-.09.15-.17.21-.27.05-.11.1-.22.14-.33.05-.11.1-.22.14-.33.06-.22.1-.72.1-.73.02-.27-.04-.56-.09-.81,0-.03-.01-.07-.03-.1-.07-.22-.18-.44-.27-.65-.03-.07-.06-.13-.1-.19-.16-.26-.35-.51-.53-.77-.19-.27-.38-.53-.59-.78-.08-.1-.17-.19-.26-.27-.17-.14-.36-.29-.54-.42-.01,0-.02-.01-.03-.02-.18-.35-.4-.68-.71-.93-.2-.16-.39-.33-.61-.46-.22-.13-.49-.22-.72-.31-.06-.02-.11-.04-.17-.05-.03,0-.06-.01-.1-.02-.24-.04-.48-.08-.72-.1-.06,0-.12,0-.18,0-.27.02-.55.06-.82.11-.13.02-.26.07-.38.11-.46.18-.87.37-1.29.62-.18.1-.33.22-.46.36-.42.19-.74.5-.96.87-.38.22-.68.52-.97.91-1.17,1.53-1.84,3.29-2.49,5.08-.07.19-.14.39-.21.58-.02.05-.04.11-.06.16,0,0,0,.01-.01.02-.17.34-.34.68-.55,1-.01.02-.03.04-.04.06-.12.13-.24.26-.37.39,0,0-.01.01-.02.02-.18.11-.36.21-.56.3-.54.24-1,.96-1.15,1.49-.16.6-.09,1.4.25,1.93.34.53.86,1,1.49,1.15.7.16,1.28.03,1.93-.25,2.03-.9,3.16-2.97,3.92-4.94.17-.43.32-.87.47-1.31.08-.22.16-.44.24-.65.02-.04.03-.08.05-.12,0-.02.01-.03.02-.05.35-.76.79-1.48,1.29-2.15.1-.06.19-.14.28-.21.19.23.4.44.66.59.02,0,.03.01.05.02-.22.54-.45,1.09-.67,1.63-.35.84-.81,1.71-.97,2.62-.28,1.6.08,3.2,1.42,4.23.7.54,1.48.77,2.36.85.67.06,1.36-.08,2.02-.2.59-.11,1.2-.65,1.49-1.15.31-.54.45-1.33.25-1.93Z"/><g><path class="cls-6" d="m351.42,799.68c-.41-.22-.75-.52-1.06-.85-.03.03-.06.06-.09.08,0,.02,0,.03.01.04-1.63,2.01-3.51,3.78-5.88,4.89-7.88,3.69-16.18.32-22.59-4.78-.37-.23-.67-.52-.95-.83-.86.64-1.84.93-2.82.92.27.25.52.51.79.75,0,0,0,0,0,0,.58.28,1.06.66,1.44,1.12.29.22.56.47.78.76,0-.02,0-.04,0-.05,1.92,1.47,3.96,2.76,6.13,3.76,4.87,2.25,10.41,3.09,15.63,1.6,2.61-.75,5.01-2.08,6.99-3.93.33-.31.63-.64.94-.97,0,.09.02.18.02.27.36-.93.99-1.75,1.88-2.29-.44-.13-.86-.29-1.23-.48Z"/><path class="cls-6" d="m387.35,893.21s.04-.08.07-.12c-.16-.95-.02-1.88.34-2.71-.03-.19-.05-.37-.08-.56-.04.04-.1.07-.14.11.11-6.06,1.42-12.06,3.95-17.59.66-1.45-1.49-2.72-2.16-1.26-3.01,6.6-4.51,13.78-4.28,21.04.01.45.23.77.52.97.14,1.09.26,2.18.37,3.27.25-.1.51-.18.77-.24-.09-1.02.1-2.06.65-2.91Z"/><path class="cls-6" d="m250.54,1079.97c-2.7-.06-5.4-.32-8.14-.85-5.29-1.02-10.48-2.15-15.9-2.05-2.92.06-5.85.4-8.71.99-3.08.64-6.1,1.5-9.28,1.34-.37-.02-.65.1-.85.3-1.04.01-2.11-.16-2.73-1-.25-.34-.36-.87-.14-1.25.17-.3.51-.49.69-.79.28-.45.3-.86.2-1.38-.14-.7-.92-.98-1.54-.87-.48.09-.98-.42-1.04-.87-.08-.61.43-1.2.97-1.39,1.05-.37,1.19-1.65.3-2.28-.28-.2-1.04-.66-.92-1.08.13-.44,1.05-.69,1.4-.8.75-.23,1.52-.32,2.29-.35.7.09,1.41.11,2.13.04.29.02.58.04.86.06.82.06,1.21-.56,1.2-1.2.04-.19.04-.38-.01-.56-.19-.69-.87-1.01-1.54-.87-.2.04-.4.05-.61.07-.65-.04-1.32-.06-1.99-.05-.69-.12-1.37-.32-1.99-.64-1.04-.54-2.6-1.57-1.45-2.8.53-.57,1.32-.9,2.02-1.2.8-.34,1.63-.62,2.47-.84,1.79-.48,3.62-.67,5.48-.62.43.01.74-.16.94-.41.35-.22.57-.61.62-1.05.25-2.14,2.67-3.15,4.46-3.62,2.54-.66,5.16-.79,7.76-.49.34.04.65-.12.88-.37,3.95,1.25,7.95,2.32,12.02,3.18,12.92,2.72,26.13,3.65,39.28,4.56,1.61.11,1.6-2.39,0-2.5-11.21-.78-22.44-1.56-33.52-3.49-5.49-.96-10.94-2.2-16.26-3.86-5.38-1.67-10.59-3.81-15.86-5.78-5.52-2.07-11.29-3.79-16.72-6.17-.44.81-1.08,1.49-1.89,1.9,3.77,1.69,7.69,3.05,11.59,4.41,5.09,1.77,10.1,3.76,15.16,5.63-1.35.15-2.68.42-3.96.84-2.41.79-4.51,2.33-5.22,4.74-3.34,0-6.93.74-9.79,2.45-1.55.93-2.81,2.66-2.26,4.55.31,1.07,1.1,1.91,2.03,2.54-.17.09-.34.17-.5.28-1,.68-1.7,1.75-1.49,2.99.1.58.37,1.07.73,1.49-.85.86-1.32,2.05-1.04,3.32.23,1.07.94,1.88,1.84,2.33-.19.42-.31.87-.33,1.33-.04.99.33,1.93.98,2.67,1.48,1.71,3.87,1.85,5.96,1.63.2-.02.39-.09.57-.18,2.27-.04,4.5-.5,6.72-.99,2.64-.59,5.28-1.08,7.99-1.26,5.53-.36,10.8.57,16.2,1.65,3.4.68,6.74,1.09,10.11,1.18-.24-.81-.29-1.68-.15-2.52Z"/><path class="cls-6" d="m488.37,1041.33c-.49-.68-.84-1.48-1.01-2.32-2.52,1.7-5.12,3.27-7.8,4.72-7.53,4.07-15.56,7.12-23.75,9.57-9.78,2.93-19.79,5.01-29.78,7.07-.2-.07-.42-.1-.68-.05-8.55,1.67-17.06,3.54-25.51,5.62-7.24,1.78-14.41,3.9-21.76,5.19.15.81.13,1.68-.08,2.52.24-.04.49-.07.73-.11,23.44,4.23,46.96,8,70.55,11.32,1.64.23,3.28.46,4.92.68,1.42.2,2.89.53,4.32.32,2.25-.33,3.98-2.41,3.09-4.62.07-.05.15-.09.22-.15.94-.79,1.34-2.08,1.01-3.27-.27-.99-.97-1.75-1.75-2.38.39-.06.76-.19,1.06-.46.81-.72.65-1.83.6-2.81-.06-.99-.16-1.99-.41-2.95-.45-1.67-1.44-3.3-3-4.14-.23-.12-.46-.23-.7-.32.22-.38.26-.86.03-1.26-1.62-2.82-4.11-5.06-7.02-6.44,10.01-2.72,19.81-6.14,29-11.08,2.65-1.42,5.23-2.98,7.73-4.66Zm-36.03,18.97c.19.13.39.26.57.4.07.05.14.1.2.15-.15-.12.15.12.15.12.66.54,1.27,1.13,1.82,1.77.13.15.25.3.38.45.02.03.14.19.14.19.06.09.12.17.19.26.07.09.12.19.18.29-.78-.23-1.55-.47-2.33-.7-1.54-.47-2.2,1.95-.66,2.41,1.53.46,3.1.87,4.61,1.4,1.07.37,1.77,1.24,2.14,2.24.23.64.38,1.31.45,1.99.01.13.06,1.06.09,1.7-.43-.02-.85-.05-1.27-.09-.74-.08-1.47-.25-2.18-.44-.92-.25-1.52.49-1.54,1.22-.17.55,0,1.16.53,1.46.95.55,1.9,1.1,2.84,1.67.17.1.34.21.5.32.08.06.17.11.25.17.03.02.06.04.08.06.01,0,0,0,.03.02.17.14.33.28.48.44.07.07.13.14.19.21.02.03.04.06.06.09.05.08.09.16.14.24.01.02,0,.01.01.02,0,0,0,0,0,.01.02.09.05.17.07.26,0,0,0,0,0,.01,0,.02,0,.04,0,.06,0,.01,0,.04,0,.07,0,0,0,0,0,0,0,.03-.02.08-.03.14,0,0,0,0,0,0-.02.02-.03.05-.04.08,0-.01,0,0,0,0,0,.01-.01.02-.02.03,0,0,0,0,0,0-.01.02-.02.03-.04.05-.06.06-.13.12-.19.18,0,0,0,0,0,0,0,0-.02.01-.03.02-.08.05-.15.09-.23.14-.01,0-.03.02-.05.03,0,0,0,0-.02,0-.1.03-.2.07-.31.09-.02,0-.07.02-.12.03-.05,0-.15.02-.18.02-.11,0-.21,0-.31,0,0,0-.03,0-.06,0-.04,0-.12-.02-.13-.03-.13-.03-.27-.06-.4-.1-.13-.04-.25-.09-.38-.13-.07-.03-.13-.06-.2-.09-.54-.26-1.04-.58-1.54-.9-.48-.31-1.17-.16-1.55.26-.54.42-.77,1.21-.11,1.8,1.41,1.27,3.05,2.06,4.88,2.37-.26.59-1.7.69-2.11.68-1.38-.06-2.76-.34-4.13-.53-2.62-.36-5.25-.73-7.87-1.11-5.32-.76-10.65-1.55-15.96-2.36-10.64-1.62-21.26-3.33-31.86-5.14-4.01-.68-8.02-1.4-12.03-2.11.21-.05.42-.09.62-.14,8.43-2.04,16.8-4.33,25.26-6.23,4.59-1.03,9.19-1.99,13.8-2.9.2.07.43.1.69.05,7.49-1.54,15.03-3.1,22.47-5,.14.33.41.61.79.73.2.07.4.13.6.21.12.04.24.09.36.14.02,0,.04.02.06.03.4.18.8.37,1.19.58.37.2.73.42,1.09.66Z"/><path class="cls-6" d="m283.81,887.64c-.6,3.72-.52,7.64-.62,11.2-.12,4.54-.06,9.11.43,13.62.25-.04.52-.06.79-.06.65,0,1.23.11,1.75.29-.53-4.43-.6-8.91-.49-13.37.08-3.23.13-6.5.44-9.72.09-.91.22-1.81.39-2.7-.05-.02-.1-.05-.15-.08.25-6.59-4.97-11.72-6.35-17.95-.35-1.57-2.76-.91-2.41.66,1.37,6.21,6.91,11.47,6.21,18.1Z"/><path class="cls-6" d="m190.35,963.27c-.12-.21-.24-.44-.37-.67-.81.81-1.07,1.96-1.03,3.1.05,1.31.16,2.56-.03,3.87-.19,1.33-.53,2.63-.83,3.93-.61,2.61-1.08,5.21-.58,7.88.29,1.58,2.7.91,2.41-.66-.74-3.98,1.24-7.95,1.59-11.88.09-1.01,0-1.97-.05-2.98,0-.12-.01-.35,0-.59-.37-.69-.75-1.36-1.11-2Z"/><path class="cls-6" d="m188.03,962.07c.08-.48.14-.97.17-1.46.01-.2-.03-.5.03-.72.04-.04.07-.08.1-.13.01,0,.03,0,.04-.02-.5-.75-1.06-1.41-1.69-1.83-.17-.11-.31-.22-.42-.31.12.19.15.44.03.71-.05.06-.11.1-.15.17-.64,1.05-.4,2.51-.65,3.68-1.01,4.61-4.29,9.02-2.76,13.91.48,1.53,2.89.88,2.41-.66-1.13-3.61,1.09-7.26,2.2-10.59.3-.89.55-1.8.7-2.73Z"/><path class="cls-6" d="m195.28,973.02c-.74-.44-1.35-1.15-1.71-2.14-.99,1.4-1.31,3.4-1.44,4.99-.21,2.58.2,5.17-.02,7.75-.06.67.62,1.25,1.25,1.25.72,0,1.19-.57,1.25-1.25.22-2.55-.18-5.09.02-7.64.08-1,.27-2.03.66-2.96Z"/><path class="cls-6" d="m196.36,973.48c.5,1.49.49,3.15.55,4.69.09,2.12.28,4.23,1.25,6.16.72,1.44,2.88.17,2.16-1.26-.78-1.54-.85-3.31-.92-5-.03-.79-.07-1.6-.13-2.41.01,0,.03.01.04.02-.31-.69-.45-1.45-.46-2.21-.84.2-1.7.22-2.5.01Z"/><path class="cls-6" d="m227.6,978.85c-3.87,1.57-7.75,3.13-11.62,4.7-4.43,1.79-8.85,3.76-13.54,4.79-.26.06-.45.18-.59.32-.51.16-1.01.32-1.52.48-1.31.11-2.63.17-3.95.17-.15,0-.26.05-.35.12-.24-.01-.47-.02-.71-.03-.04,0-.08.01-.11.02-4.45-.53-8.84-2.27-12.35-4.75-.9-.64-1.69-1.39-2.28-2.3-.48.75-1.2,1.28-2.03,1.6.31.28.56.61.77.96.29.24.54.52.75.82.02-.01.04-.02.06-.03,2.31,2.16,5.57,3.53,8.35,4.57,4.99,1.87,10.5,2.52,15.67,1,.16-.05.28-.11.4-.2.01,0,.02,0,.04,0,1.77-.63,3.49-1.43,5.12-2.37,1.79-.66,3.57-1.38,5.34-2.1,4.07-1.65,8.14-3.29,12.21-4.94.29-.12.58-.23.87-.35-.36-.76-.53-1.62-.52-2.47Z"/><path class="cls-6" d="m444.22,999.52c-17.21.52-34.17,4.98-49.42,12.99-.15.08-.26.18-.36.28-11.11,4.35-21.58,10.12-32.46,14.99-3.41,1.53-6.89,2.9-10.38,4.25-.21-4.69,1.31-8.78,3.66-12.82,2.31-3.99,5-7.76,8.02-11.24.04-.04.07-.08.11-.12.02,0,.04,0,.06,0,.58-.76,1.41-1.34,2.48-1.61.17-.06.33-.13.51-.18.84-.46,1.74-.82,2.66-1.15,2.04-.72,4.1-1.41,6.15-2.11,4.23-1.45,8.46-2.9,12.69-4.35,1.51-.52.86-2.93-.66-2.41-4.53,1.55-9.07,3.11-13.6,4.66-1.12.38-2.3.75-3.49,1.13-.07.03-.15.05-.23.07-.39.13-.78.24-1.16.38.02-.02.03-.03.05-.04-.29.08-.6.14-.92.17-.41.1-.85.17-1.33.17-.11,0-.22,0-.33-.02-.53.31-1.15.52-1.87.6-4.28,4.4-8.06,9.26-11.18,14.6-2.7,4.62-4.51,9.43-4.09,14.87,0,.12.04.22.07.32h-.03c-9.75-2.02-19.39-4.59-28.85-7.7-1-3.91-2.05-7.82-3.69-11.53-1.7-3.84-4.13-7.15-7.27-9.92-.93-.82-1.89-1.61-2.86-2.39-.1-.21-.28-.39-.57-.52-.07-.03-.13-.06-.2-.09-.56-.44-1.14-.87-1.71-1.31-.07-.03-.14-.05-.22-.07-2.49-1-5.03-1.33-7.42-2.5.14.1.27.19.41.29-1.02-.38-2.03-.75-3.06-1.1-2.01-.7-4.03-1.37-6.07-2-2.13-.66-4.3-1.42-6.57-1.29-1.6.1-1.61,2.6,0,2.5,2.18-.13,4.29.69,6.34,1.33,1.89.59,3.76,1.21,5.63,1.87,3.81,1.33,7.57,2.81,11.27,4.4.3.23.6.47.89.7,3.33,2.63,6.23,5.52,8.23,9.3,1.86,3.52,2.98,7.37,3.98,11.21-11.57-4.7-23.13-9.39-34.7-14.09-11.89-4.83-23.76-10.3-36.28-13.28-6.84-1.63-13.91-2.4-20.92-1.62-1.58.18-1.6,2.68,0,2.5,12.6-1.4,24.89,2.3,36.53,6.76,12.27,4.7,24.39,9.84,36.57,14.78,6.9,2.8,13.8,5.6,20.7,8.41.11.04.21.07.3.08,8.3,2.73,16.72,5.04,25.24,6.93-5.47,2.09-10.91,4.24-16.16,6.86-5.79,2.89-11.38,6.3-17.75,7.79-1.57.37-.9,2.78.66,2.41,5.55-1.3,10.58-4.02,15.6-6.64,5.24-2.73,10.63-5.05,16.14-7.18,1.99-.77,3.99-1.52,5.99-2.28.22.04.43.09.65.14.78.16,1.32-.36,1.49-.95,2.93-1.12,5.84-2.26,8.73-3.49,5.48-2.34,10.83-4.96,16.18-7.58,6.24-3.05,12.49-6.07,18.97-8.59.21-.08.38-.21.51-.35.06-.02.11-.04.17-.07,14.85-7.81,31.39-12.15,48.16-12.65,1.61-.05,1.61-2.55,0-2.5Z"/><path class="cls-6" d="m486.52,967.74c-.23-1.16-.5-2.34-.91-3.45-.37-.98-1-1.86-1.34-2.84-.17-.49-.14-.99-.13-1.5.03-.05.06-.1.08-.16-.61.69-1.45,1.21-2.51,1.42.03.38.09.76.24,1.15.3.77.76,1.46,1.1,2.21.67,1.53.99,3.27,1.26,4.91.3,1.81.41,3.64.41,5.47,0,1.61,2.49,1.61,2.5,0,0-2.42-.22-4.84-.69-7.22Z"/><path class="cls-6" d="m482.17,968.13c-.24-1.79-.63-3.64-1.47-5.26.11-.18.17-.4.15-.67-.02-.31,0-.61.05-.9-.03,0-.06,0-.09,0-.8,1.08-2.07,1.83-3.82,1.83-.17,0-.33-.02-.49-.04-.29.46-.66.87-1.1,1.21,0,1.81,0,3.62.01,5.43-.03,0-.06,0-.08,0-.32,1.94-1.64,3.69-3.97,4.01,0,.03,0,.06,0,.09,0,0-.01-.01-.02-.02-.04.67-.25,1.32-.58,1.91.08-.03.15-.08.22-.12-.58,2.88-.83,5.82-.69,8.75.03.67.55,1.25,1.25,1.25.65,0,1.28-.57,1.25-1.25-.15-3.24.17-6.45.94-9.59.07-.16.12-.33.12-.51,0,0,0-.01,0-.02,0-.02,0-.04.01-.05.06-.23.05-.43.01-.61.02-.23.07-.46.16-.7.04-.11.13-.27.22-.39,0,0,0,0,0,0,.03-.03.06-.06.08-.09,0,0,.04-.03.07-.06.03.25.06.49.08.74.24,2.26.31,4.54.24,6.81-.02.68.59,1.25,1.25,1.25.7,0,1.23-.57,1.25-1.25.05-1.49.03-2.97-.05-4.46-.04-.73-.1-1.45-.17-2.18-.04-.37-.06-.76-.1-1.14.54-.09,1.01-.48,1.01-1.19,0-2.05,0-4.09-.01-6.14,0-.5,0-1,0-1.5,0,0,0-.04,0-.09.1.12.21.23.26.31.23.37.43.75.6,1.15.66,1.55.9,3.27,1.06,4.93.2,2.03.36,4.07.54,6.11.06.67.53,1.25,1.25,1.25.63,0,1.31-.57,1.25-1.25-.22-2.5-.37-5.02-.7-7.52Z"/><path class="cls-6" d="m488.28,986.16c-.22.14-.44.27-.65.4-3.01,1.8-6.58,2.37-10.03,2.64-1.82.14-3.66.26-5.49.23-1.28-.02-2.58-.16-3.69-.74.32-.65.16-1.52-.75-1.71-4.76-1.02-9.46-2.26-14.11-3.66-.37.7-.92,1.29-1.64,1.69.53.14.97.39,1.37.68.23.03.45.08.66.14.73.08,1.36.29,1.9.6.6.11,1.13.32,1.58.6,2.54.7,5.1,1.36,7.67,1.94.04.2.14.41.32.59,2.93,3.11,7.91,2.44,11.76,2.17,3.87-.27,7.92-.88,11.34-2.81.39-.42.87-.77,1.44-1.01.21-.2.44-.39.69-.55-.98-.18-1.76-.61-2.37-1.2Z"/><path class="cls-7" d="m369.32,768.17c-.77,3.55-2.4,8.19-6.36,9.17-.41.1-.67.35-.79.65-.17.14-.31.32-.4.56-2.06,5.6-5.05,10.85-8.82,15.47-.03.02-.07.04-.1.07-.14.1-.28.21-.41.32-.18.17-.33.37-.48.57-.15.21-.24.45-.34.68-.05.17-.06.33-.02.5,0,.02,0,.04.01.06-3.94,4.91-10.28,7.49-16.57,7.09-7.4-.47-14.17-4.82-18.35-10.84-2.37-3.42-3.97-7.26-4.9-11.3-.08-.35-.27-.58-.5-.72-.07-.1-.14-.19-.25-.28-3.74-2.98-6.84-6.76-8.85-11.11-1.03-2.22-1.85-4.95-1.01-7.36.69-1.99,2.49-3.54,4.65-3.34,1.24.11,1.51-1.36.83-2.1.65-6.24,3.87-12.06,8.64-16.12,5.37-4.56,12.25-5.75,19.04-6.52.2.05.42.06.62,0,.13-.04.26-.07.38-.11.19-.02.37-.04.56-.06.3-.03.55-.15.73-.32.02,0,.04-.01.06-.02.03,0,.06.02.09.03,1.44.29,2.89.57,4.33.86.57.11,1.19-.14,1.44-.68,1.73.61,3.65.87,5.39,1.35,6.14,1.68,11.36,6.34,13.72,12.25,1.02,3.6,1.63,7.28,1.8,11.02.01.28.1.5.23.68.01.89,1.25,1.72,2.18.94,1.48-1.24,3.3.72,3.69,2.04.61,2.07.2,4.5-.25,6.56Zm1.37-9.14c-1.22-1.4-3.1-2.02-4.79-1.61-.23-3.49-.78-6.94-1.69-10.31,0-.12-.03-.25-.08-.39-.01-.03-.03-.05-.04-.08-.01-.05-.02-.1-.04-.15-.05-.18-.13-.33-.23-.45-2.24-5.3-6.31-9.73-11.48-12.19-1.31-.62-2.67-1.14-4.07-1.5-1.74-.45-3.6-.59-5.26-1.31-1.47-.64-2.67-1.76-2.78-3.46-.02-.24-.01-.49,0-.73.68-1.36,1.22-2.8,1.59-4.28.08-.14.15-.28.22-.41.29-.53.17-1.04-.12-1.39-.15-.3-.4-.54-.76-.64-.62-.17-1.4.21-1.54.88-.05.22-.11.44-.16.66-.69,1.33-1.32,2.79-1.59,4.27-.93,1.8-2.12,3.45-3.58,4.88-.17.16-.25.34-.31.51-7.36.87-14.62,2.28-20.46,7.3-5.21,4.49-8.56,10.95-9.33,17.82-1.87.37-3.49,1.63-4.55,3.27-1.63,2.53-1.54,5.75-.69,8.54,1.73,5.7,5.76,10.85,10.31,14.53.05.04.11.07.16.1,1.85,7.91,6.25,15.27,13.03,19.78,6.75,4.49,15.38,5.75,22.88,2.48,3.94-1.71,7.3-4.56,9.59-8.23.06-.1.1-.2.13-.3.02-.03.06-.05.08-.09.09-.14.14-.3.15-.46,3.69-4.73,6.63-9.98,8.73-15.63,5.3-1.62,7.42-8.12,8.09-13.11.37-2.76.53-6.05-1.42-8.3Z"/></g><path class="cls-12" d="m368.99,756.5c-.31-.04-.62-.04-.92,0,.19-.15.3-.39.22-.64-.1-.3-.44-.56-.77-.44-.14.05-.27.12-.4.19.19-1.18.3-2.37.3-3.57,0-.3-.17-.49-.39-.56,0-.07.01-.14.02-.21.01-.14-.05-.28-.14-.38.06-.45.12-.9.18-1.35.04-.34-.32-.62-.62-.62-.37,0-.58.29-.62.62-.44,3.31-.88,6.63-1.32,9.94-.04.34.32.62.62.62.06,0,.1-.02.15-.03.3.08.66-.03.79-.4.07-.2.13-.41.19-.61.06-.11.11-.21.18-.32,0-.01.02-.03.03-.04,0,0,.04-.05.06-.07.06-.07.12-.14.19-.21.06-.05.11-.11.17-.16.02-.02.05-.04.06-.05.02-.02.05-.04.07-.05.14-.1.29-.18.44-.26,0,0,.02-.01.04-.02.03-.01.06-.02.09-.03.08-.03.16-.06.24-.08.09-.02.18-.05.27-.06.02,0,.1-.01.08-.01.01,0,.02,0,.02,0,.09,0,.19,0,.28,0,.05,0,.09,0,.14,0,.04,0,.18.02.02,0,.32.04.69-.08.77-.44.07-.29-.09-.72-.44-.77Z"/><path class="cls-12" d="m307.72,742.02c-1.38,2.42-2.31,5.04-2.79,7.74-.17.07-.3.2-.34.39-.13.73-.25,1.47-.38,2.2-.24.09-.45.32-.42.58.1.88.2,1.75.31,2.63-1.01-.84-2.37-1.27-3.68-1.03-.33.06-.52.46-.44.77.1.35.44.5.77.44.02,0,.1-.01.11-.02.05,0,.09,0,.14-.01.12,0,.24,0,.36,0,.06,0,.12,0,.18.01.02,0,.02,0,.03,0,0,0,0,0,.01,0,.11.02.22.04.32.06.12.03.23.06.34.1.06.02.11.04.17.06-.11-.04.07.03.07.03.21.1.41.21.6.34.03.02.06.05.1.07,0,0,.08.06.09.07.09.08.18.16.26.24.08.09.16.18.24.27.01.02.02.02.02.02,0,0,0,0,0,.01.04.05.07.1.1.15.06.09.12.18.17.28.03.05.06.11.08.16,0,0,.03.06.04.09.09.22.15.44.19.67.06.33.46.52.77.44.08-.02.15-.06.21-.11.38.05.85-.27.76-.77-.93-5.22.03-10.65,2.66-15.25.4-.7-.68-1.33-1.08-.63Z"/><path class="cls-12" d="m343.72,729.25c.53-.34,1-.86,1.15-1.49.42-1.85.84-3.7,1.26-5.55.15-.65.09-1.34-.25-1.93-.3-.52-.9-1.01-1.49-1.15-.64-.15-1.36-.11-1.93.25-.15.09-.29.2-.42.32-.23-.26-.52-.46-.87-.56-.9-.25-1.87.2-2.16,1.1-.1.32.11.64.4.75-.21.21-.39.46-.55.7-.34.5-.59,1.07-.78,1.64-.05.16-.01.35.08.49-.13.5-.27.99-.4,1.49-.15.56-.31,1.12-.51,1.67-.09-.12-.2-.22-.35-.26-.15-.03-.35-.04-.48.06-.41.31-.76.66-1.05,1.08-.26.38-.46.81-.58,1.25-.07.24.03.51.22.66-.47.22-.99.31-1.55.17-.78-.19-1.12,1.02-.33,1.21,1.9.46,3.68-.74,4.63-2.32.51-.86.83-1.84,1.1-2.8.3-1.07.58-2.15.88-3.23.01-.05,0-.09,0-.14.07-.12.13-.24.2-.35.04-.06.08-.11.12-.17,0,0,.04-.05.05-.07.07-.09.15-.17.22-.25.03.11.07.21.08.32,0,.04.01.08.02.11,0,0,0,0,0,.02,0,.06.01.12.02.18.01.14.02.28.01.42s0,.28-.02.42c0,.06-.01.12-.02.18.02-.13-.02.11-.02.13-.05.27-.13.54-.22.8-.03.09-.03.18-.01.27-.34,1.23-.69,2.46-.97,3.71-.29,1.29.21,2.39,1.58,2.65,1.5.28,3.08.29,4.6.42.8.07.8-1.18,0-1.25-.43-.04-.85-.07-1.28-.11-.11-.14-.27-.24-.47-.23-.13,0-.26,0-.39,0-.06,0-.13,0-.19-.01-.04,0-.25,0-.07,0-.12,0-.26-.05-.38-.07-.12-.03-.25-.07-.37-.11-.06-.02-.12-.04-.17-.07-.03-.01-.05-.02-.08-.04-.03-.01-.05-.03-.08-.04.61.12,1.29.08,1.83-.27Z"/><path class="cls-5" d="m392.68,971.16c-.49-4.22-2.11-8.26-3.43-12.28-1.32-4.03-2.63-8.05-3.95-12.08-.02-.1-.03-.2-.07-.3-2.61-6.86-.76-14.08.59-21,1.45-7.44,1.97-14.98,1.31-22.54.16-2.67.08-5.35-.19-7.98-.98-9.44-3.58-18.72-5.68-27.95-.5-2.19-1-4.38-1.5-6.56,0-.02,0-.03,0-.05-1.79-11.57-.71-23.45,3.02-34.54.23-.17.42-.4.48-.67.16-.69-.21-1.31-.87-1.54-1.92-.64-3.97-.94-6-.87-.7-.19-1.62.2-1.7,1.15-.37,4.92-1.08,9.8-2.09,14.62-1.46,3.99-2.91,7.98-4.37,11.96-.03.08-.05.17-.05.25,0,0-.01.02-.02.03-1.92,4.53-3.83,9.07-5.75,13.6-4.44,7.57-9.78,14.57-15.97,20.83-.13.13-.24.27-.33.41-.05.05-.1.07-.15.12-2.81,2.94-5.94,5.57-9.31,7.84-.03-.02-.06-.05-.09-.07-8.97-5.61-17.12-12.39-24.32-20.13-.54-.74-1.06-1.49-1.54-2.27-1.31-2.48-2.55-5-3.76-7.54-.02-.06-.05-.11-.07-.17-.04-.11-.1-.21-.16-.3-5.54-11.77-9.92-24.07-13.02-36.72-.22-.88-1.08-1.05-1.72-.76-.17-.03-.34-.02-.51.03-1.14.31-2.28.63-3.41.94-.1.03-.2.08-.29.13-.12.02-.24.06-.35.13-.15.08-.26.19-.35.32-.11.12-.19.26-.22.43-.01.11-.03.22-.04.33,0,.23.06.44.17.63.05.06.1.12.14.19.99,6.59,1.97,13.18,2.96,19.76.47,9.99-.1,19.98-1.72,29.82-4.11,11.25-5.53,23.5-4,35.38.87,6.76,2.81,13.36,3.51,20.14.69,6.63-.21,13.1-2.21,19.45-2.22,7.05-5.53,13.67-8.85,20.25-.44.87-.34,1.71.05,2.38.05.25.13.5.27.72.62.99,1.24,1.98,1.86,2.98.2.32.46.59.77.8,3.27,6.38,9.6,10.66,15.79,14.13,1.94,1.09,3.92,2.15,5.84,3.3,2.94,2.34,5.88,4.68,8.83,7.01,1.69,1.88,3.17,3.94,4.41,6.16,2.21,3.96,3.63,8.39,4.03,12.92.11,1.23.92,2.3,2.16,2.47.12.05.23.1.36.13,8.72,2.18,17.45,4.37,26.17,6.55.67.17,1.25.07,1.73-.18-.01-.14-.02-.28-.02-.43.02-1.64.33-3.27.65-4.87.1-.51.29-.97.55-1.38,4.78-11.39,12.3-21.58,21.7-29.61,2.89-2.46,5.96-4.68,9.17-6.69.34-.21.6-.46.78-.74.06-.03.12-.05.17-.09,6.03-4.19,11.53-10.07,10.62-17.97Z"/><path class="cls-4" d="m484.96,957.73c-.92,0-1.32.82-1.18,1.53-.14.7.25,1.53,1.18,1.53s1.32-.82,1.18-1.53c.14-.7-.25-1.53-1.18-1.53Z"/><path class="cls-4" d="m482.52,959.65c-.05-.15-.14-.29-.26-.4-.11-.12-.25-.21-.4-.26-.15-.08-.31-.11-.48-.11-.11.01-.22.03-.33.04-.21.06-.4.17-.55.32-.07.08-.13.17-.2.25-.11.19-.17.41-.17.63-.04.32-.07.63-.11.95,0,.17.03.33.11.48.05.15.14.29.26.4.11.12.25.21.4.26.15.08.31.11.48.11l.33-.04c.21-.06.4-.17.55-.32.07-.08.13-.17.2-.25.11-.2.17-.41.17-.63.04-.32.07-.63.11-.95,0-.17-.03-.33-.11-.48Z"/><path class="cls-4" d="m479.25,963.65c-.04-.13-.1-.25-.17-.36,0-.05,0-.11-.01-.16,0-.17-.06-.32-.15-.46-.08-.15-.19-.26-.32-.35-.12-.11-.26-.19-.43-.22-.11-.01-.22-.03-.33-.04-.23,0-.44.06-.63.17-.08.07-.17.13-.25.2-.15.16-.26.34-.32.55-.02.12-.04.25-.05.37,0,.02,0,.03,0,.05,0,.03,0,.06,0,.1,0,.14.03.28.05.42,0,.03.01.07.02.1.04.13.11.27.16.38.01.03.03.06.04.09.02.03.03.05.05.08.07.1.14.19.22.28.01.01.02.03.04.04.11.12.25.21.4.26.15.08.31.11.48.11.17,0,.33-.03.48-.11.15-.05.29-.14.4-.26.07-.08.13-.17.2-.25.11-.19.17-.41.17-.63-.01-.11-.03-.22-.04-.33Z"/><path class="cls-4" d="m475.74,972.8c0-.17-.06-.32-.15-.46-.08-.15-.19-.26-.32-.35-.12-.11-.26-.19-.43-.22l-.33-.04c-.23,0-.44.06-.63.17-.08.07-.17.13-.25.2-.15.16-.26.34-.32.55-.07.23-.14.46-.21.69-.05.17-.06.33-.02.5,0,.17.06.32.15.46.08.15.19.26.32.35.12.11.26.19.43.22.11.01.22.03.33.04.23,0,.44-.06.63-.17.08-.07.17-.13.25-.2.15-.16.26-.34.32-.55.07-.23.14-.46.21-.69.05-.17.06-.33.02-.5Z"/><path class="cls-4" d="m186.21,957.14c-.04-.06-.06-.13-.11-.18-.11-.12-.25-.21-.4-.26-.15-.08-.31-.11-.48-.11-.11.01-.22.03-.33.04-.17.05-.31.13-.45.24-.1.03-.21.07-.3.13-.08.07-.17.13-.25.2-.15.16-.26.34-.32.55-.03.13-.05.26-.08.39-.06.22-.06.44,0,.66.06.21.17.4.32.55.16.15.34.26.55.32.06.02.12.02.18.02.05.03.1.08.15.1.15.08.31.11.48.11l.33-.04c.21-.06.4-.17.55-.32.07-.08.13-.17.2-.25.04-.06.06-.13.08-.19.53-.52.49-1.52-.12-1.96Z"/><path class="cls-4" d="m190.09,960.86c0-.17-.03-.33-.11-.48-.02-.05-.06-.09-.09-.14-.04-.15-.1-.28-.2-.39-.09-.14-.21-.24-.35-.32-.14-.09-.3-.14-.46-.15-.17-.04-.33-.03-.5.02l-.3.13c-.19.11-.34.26-.45.45l-.13.3c-.06.22-.06.44,0,.66l.15.8c.04.16.11.3.22.43.09.14.21.24.35.32.1.04.2.08.3.13.17.05.33.06.5.02.11,0,.22-.03.32-.09.15-.05.29-.14.4-.26.07-.08.13-.17.2-.25.11-.19.17-.41.17-.63,0-.18-.01-.36-.02-.55Z"/><path class="cls-4" d="m193.39,965.15s0-.04-.02-.06c-.04-.11-.09-.23-.14-.34,0-.02-.02-.03-.03-.05-.06-.09-.14-.18-.2-.26,0-.01-.02-.02-.03-.03,0,0-.02,0-.03-.02,0,0,0,0,0,0-.05-.15-.14-.29-.26-.4-.11-.12-.25-.21-.4-.26-.15-.08-.31-.11-.48-.11-.11.01-.22.03-.33.04-.21.06-.4.17-.55.32-.07.08-.13.17-.2.25-.11.2-.17.41-.17.63l.1,1.12c0,.23.06.44.17.63.08.15.19.26.32.35.12.11.26.19.43.22.22.06.44.06.66,0,.12-.04.23-.09.34-.14.02,0,.03-.02.05-.03.1-.07.2-.15.29-.23.01-.01.03-.03.04-.04.09-.1.19-.21.25-.34.06-.11.1-.23.15-.34,0-.02.02-.04.02-.06,0-.02,0-.04.01-.06.02-.12.04-.25.05-.38,0-.15-.03-.29-.05-.43Z"/><path class="cls-4" d="m197.09,972.87c-.05-.15-.14-.29-.26-.4-.05-.05-.12-.08-.18-.12,0-.02-.01-.03-.02-.05-.05-.15-.14-.29-.26-.4-.11-.12-.25-.21-.4-.26-.15-.08-.31-.11-.48-.11-.11.01-.22.03-.33.04-.21.06-.4.17-.55.32-.07.08-.13.17-.2.25-.11.19-.17.41-.17.63-.04.38-.09.77-.13,1.15,0,.23.06.44.17.63.08.15.19.26.32.35.12.11.26.19.43.22.22.06.44.06.66,0l.56-.11c.1-.04.2-.08.3-.13.15-.08.26-.19.35-.32.08-.08.13-.17.16-.28.08-.15.11-.31.11-.48.01-.16.02-.32.03-.48,0-.17-.03-.33-.11-.48Z"/><g><polygon class="cls-2" points="331.52 609.72 328.08 608.7 325.2 610.84 325.21 607.4 322.23 605.49 325.68 604.38 326.73 601.06 328.85 603.82 332.47 603.68 330.33 606.49 331.52 609.72"/><polygon class="cls-3" points="330.69 609.14 327.54 608.2 324.9 610.16 324.91 606.99 322.18 605.22 325.34 604.2 326.29 601.14 328.23 603.69 331.54 603.56 329.59 606.16 330.69 609.14"/></g><g><polygon class="cls-2" points="365.53 696.03 366.94 692.97 365.22 690.07 368.57 690.47 370.79 687.94 371.45 691.24 374.54 692.58 371.6 694.23 371.29 697.59 368.81 695.29 365.53 696.03"/><polygon class="cls-3" points="366.19 695.33 367.5 692.53 365.91 689.87 369 690.24 371.06 687.92 371.66 690.95 374.52 692.17 371.8 693.67 371.51 696.74 369.23 694.65 366.19 695.33"/></g><g><polygon class="cls-2" points="481.08 642.28 478.7 641.48 476.74 643.05 476.71 640.48 474.65 639.02 477.01 638.22 477.69 635.76 479.17 637.84 481.66 637.77 480.22 639.85 481.08 642.28"/><polygon class="cls-3" points="480.5 641.84 478.32 641.1 476.53 642.54 476.5 640.16 474.61 638.81 476.77 638.09 477.39 635.81 478.75 637.73 481.03 637.68 479.71 639.6 480.5 641.84"/></g><g><polygon class="cls-2" points="401.95 752.96 399.86 752.2 398.16 753.63 398.11 751.25 396.29 749.87 398.35 749.16 398.92 746.88 400.24 748.83 402.42 748.79 401.18 750.7 401.95 752.96"/><polygon class="cls-3" points="401.44 752.55 399.53 751.84 397.98 753.16 397.93 750.96 396.26 749.69 398.14 749.03 398.66 746.93 399.87 748.72 401.86 748.7 400.73 750.46 401.44 752.55"/></g><g><polygon class="cls-2" points="455.85 576.26 453.5 575.54 451.54 577.03 451.54 574.61 449.51 573.26 451.85 572.5 452.55 570.18 454.01 572.12 456.47 572.03 455.02 574 455.85 576.26"/><polygon class="cls-3" points="455.28 575.85 453.13 575.18 451.34 576.55 451.34 574.32 449.47 573.07 451.62 572.37 452.25 570.23 453.59 572.02 455.84 571.95 454.52 573.76 455.28 575.85"/></g><g><polygon class="cls-2" points="252.87 639.53 249.43 638.51 246.54 640.65 246.56 637.2 243.58 635.29 247.03 634.18 248.08 630.87 250.2 633.62 253.82 633.48 251.68 636.3 252.87 639.53"/><polygon class="cls-3" points="252.04 638.95 248.89 638 246.25 639.97 246.26 636.79 243.53 635.03 246.69 634 247.64 630.95 249.58 633.49 252.89 633.37 250.94 635.96 252.04 638.95"/></g><g><polygon class="cls-2" points="310.88 642.8 309.15 642.2 307.72 643.36 307.69 641.44 306.18 640.35 307.9 639.77 308.39 637.93 309.48 639.49 311.29 639.45 310.25 640.99 310.88 642.8"/><polygon class="cls-3" points="310.46 642.47 308.87 641.91 307.57 642.98 307.54 641.21 306.16 640.2 307.73 639.66 308.17 637.97 309.17 639.41 310.83 639.37 309.88 640.8 310.46 642.47"/></g><g><polygon class="cls-2" points="214.94 566.95 211.49 565.93 208.61 568.07 208.62 564.63 205.65 562.72 209.1 561.6 210.14 558.29 212.26 561.04 215.88 560.91 213.74 563.72 214.94 566.95"/><polygon class="cls-3" points="214.1 566.37 210.95 565.43 208.32 567.39 208.32 564.21 205.6 562.45 208.75 561.43 209.7 558.37 211.64 560.91 214.96 560.79 213 563.39 214.1 566.37"/></g><g><polygon class="cls-2" points="399.52 667.15 397.43 666.39 395.73 667.82 395.68 665.44 393.86 664.07 395.92 663.35 396.49 661.07 397.81 663.02 399.99 662.98 398.75 664.9 399.52 667.15"/><polygon class="cls-3" points="399.01 666.74 397.1 666.03 395.55 667.35 395.5 665.15 393.83 663.88 395.71 663.22 396.23 661.12 397.44 662.92 399.43 662.89 398.3 664.65 399.01 666.74"/></g><g><polygon class="cls-2" points="146.65 456.2 143.21 455.18 140.32 457.32 140.33 453.87 137.36 451.97 140.81 450.85 141.85 447.54 143.97 450.29 147.59 450.15 145.45 452.97 146.65 456.2"/><polygon class="cls-3" points="145.81 455.62 142.66 454.67 140.03 456.64 140.04 453.46 137.31 451.7 140.46 450.67 141.41 447.62 143.36 450.16 146.67 450.04 144.71 452.64 145.81 455.62"/></g><g><polygon class="cls-2" points="289.88 501.72 290.48 498.18 288.03 495.57 291.45 495.18 292.99 492 294.5 495.3 297.91 495.95 295.43 498.37 295.99 501.95 292.94 500.16 289.88 501.72"/><polygon class="cls-3" points="290.35 500.82 290.92 497.58 288.66 495.2 291.82 494.83 293.26 491.92 294.64 494.93 297.79 495.52 295.48 497.74 295.99 501.02 293.19 499.38 290.35 500.82"/></g><g><polygon class="cls-2" points="422.6 516.45 419.15 515.43 416.27 517.56 416.28 514.12 413.31 512.21 416.76 511.1 417.8 507.79 419.92 510.54 423.54 510.4 421.4 513.22 422.6 516.45"/><polygon class="cls-3" points="421.76 515.87 418.61 514.92 415.98 516.89 415.99 513.71 413.26 511.94 416.41 510.92 417.36 507.86 419.31 510.41 422.62 510.29 420.66 512.88 421.76 515.87"/></g><g><polygon class="cls-2" points="367.35 562.19 365.61 561.59 364.19 562.75 364.16 560.84 362.65 559.74 364.37 559.16 364.86 557.33 365.95 558.88 367.76 558.84 366.72 560.39 367.35 562.19"/><polygon class="cls-3" points="366.92 561.86 365.34 561.31 364.04 562.37 364.01 560.61 362.63 559.59 364.19 559.06 364.64 557.36 365.64 558.8 367.3 558.77 366.34 560.19 366.92 561.86"/></g><g><polygon class="cls-2" points="468.35 547.41 466.61 546.81 465.19 547.97 465.16 546.05 463.65 544.96 465.37 544.37 465.86 542.54 466.95 544.09 468.76 544.05 467.72 545.6 468.35 547.41"/><polygon class="cls-3" points="467.92 547.08 466.33 546.52 465.03 547.59 465.01 545.82 463.62 544.81 465.19 544.27 465.64 542.58 466.64 544.01 468.29 543.98 467.34 545.41 467.92 547.08"/></g><g><polygon class="cls-2" points="267.29 574.73 267.37 572.89 265.86 571.86 267.68 571.28 268.3 569.52 269.35 571 271.25 570.95 270.07 572.44 270.63 574.16 268.85 573.6 267.29 574.73"/><polygon class="cls-3" points="267.49 574.22 267.57 572.54 266.18 571.6 267.86 571.07 268.44 569.45 269.4 570.81 271.15 570.75 270.06 572.12 270.56 573.7 268.93 573.19 267.49 574.22"/></g><g><polygon class="cls-2" points="288.27 561.24 291.48 559.65 292.15 556.12 294.48 558.66 297.96 558.04 296.18 561.2 297.67 564.34 294.24 563.76 291.68 566.32 291.34 562.8 288.27 561.24"/><polygon class="cls-3" points="289.28 561.1 292.23 559.65 292.82 556.42 294.98 558.76 298.18 558.2 296.56 561.1 297.94 563.98 294.78 563.44 292.44 565.78 292.11 562.54 289.28 561.1"/></g><g><polygon class="cls-2" points="577.92 586.46 574.48 585.44 571.59 587.58 571.61 584.14 568.63 582.23 572.08 581.12 573.13 577.8 575.25 580.56 578.87 580.42 576.73 583.23 577.92 586.46"/><polygon class="cls-3" points="577.09 585.88 573.94 584.94 571.3 586.9 571.31 583.73 568.58 581.96 571.74 580.94 572.69 577.88 574.63 580.43 577.94 580.3 575.99 582.9 577.09 585.88"/></g><g><polygon class="cls-2" points="549.27 583.71 550.91 582.89 551.08 581.06 552.47 582.38 554.31 582.07 553.52 583.7 554.49 585.33 552.62 585.03 551.38 586.35 551 584.52 549.27 583.71"/><polygon class="cls-3" points="549.8 583.64 551.31 582.89 551.46 581.22 552.74 582.43 554.43 582.15 553.72 583.65 554.62 585.15 552.89 584.86 551.76 586.07 551.4 584.39 549.8 583.64"/></g><g><polygon class="cls-2" points="463.92 621.8 460.37 621.28 457.82 623.81 457.34 620.4 454.12 618.93 457.38 617.34 457.95 613.91 460.43 616.34 464 615.69 462.28 618.77 463.92 621.8"/><polygon class="cls-3" points="463.01 621.35 459.76 620.86 457.43 623.18 456.99 620.03 454.04 618.67 457.02 617.21 457.52 614.05 459.81 616.29 463.07 615.7 461.5 618.55 463.01 621.35"/></g><g><polygon class="cls-2" points="485.86 594.26 482.42 593.25 479.53 595.38 479.55 591.94 476.57 590.03 480.02 588.92 481.06 585.6 483.18 588.36 486.8 588.22 484.66 591.03 485.86 594.26"/><polygon class="cls-3" points="485.02 593.68 481.87 592.74 479.24 594.7 479.25 591.53 476.52 589.76 479.67 588.74 480.62 585.68 482.57 588.23 485.88 588.1 483.93 590.7 485.02 593.68"/></g><g><polygon class="cls-2" points="182.14 513.52 184.67 510.96 184.15 507.41 187.18 509.05 190.27 507.33 189.61 510.9 192.04 513.39 188.61 513.95 187.02 517.21 185.55 513.99 182.14 513.52"/><polygon class="cls-3" points="183.05 513.05 185.37 510.73 184.88 507.48 187.68 508.99 190.53 507.42 189.93 510.68 192.18 512.96 189.02 513.47 187.56 516.45 186.2 513.5 183.05 513.05"/></g><g><polygon class="cls-2" points="159.12 664.89 155.68 663.87 152.8 666.01 152.81 662.57 149.83 660.66 153.28 659.54 154.33 656.23 156.45 658.99 160.07 658.85 157.93 661.66 159.12 664.89"/><polygon class="cls-3" points="158.29 664.31 155.14 663.37 152.5 665.33 152.51 662.15 149.79 660.39 152.94 659.37 153.89 656.31 155.83 658.85 159.14 658.73 157.19 661.33 158.29 664.31"/></g><g><polygon class="cls-2" points="354.84 477.61 351.4 476.6 348.52 478.73 348.53 475.29 345.55 473.38 349 472.27 350.05 468.96 352.17 471.71 355.79 471.57 353.65 474.39 354.84 477.61"/><polygon class="cls-3" points="354.01 477.04 350.86 476.09 348.22 478.06 348.23 474.88 345.51 473.11 348.66 472.09 349.61 469.03 351.55 471.58 354.86 471.46 352.91 474.05 354.01 477.04"/></g><g><polygon class="cls-2" points="506.42 513.43 502.98 512.42 500.1 514.55 500.11 511.11 497.13 509.2 500.58 508.09 501.63 504.77 503.75 507.53 507.37 507.39 505.23 510.2 506.42 513.43"/><polygon class="cls-3" points="505.59 512.85 502.44 511.91 499.8 513.88 499.81 510.7 497.09 508.93 500.24 507.91 501.19 504.85 503.13 507.4 506.44 507.28 504.49 509.87 505.59 512.85"/></g><g><polygon class="cls-2" points="408.57 528.64 409.05 526.87 407.8 525.53 409.71 525.37 410.7 523.79 411.4 525.46 413.26 525.83 411.78 527.02 411.95 528.82 410.33 527.89 408.57 528.64"/><polygon class="cls-3" points="408.87 528.19 409.32 526.57 408.17 525.35 409.93 525.2 410.85 523.75 411.49 525.28 413.21 525.61 411.84 526.7 411.99 528.36 410.5 527.5 408.87 528.19"/></g><g><polygon class="cls-2" points="348.36 616.2 346.63 615.6 345.2 616.76 345.17 614.85 343.66 613.75 345.38 613.17 345.87 611.33 346.96 612.89 348.77 612.85 347.73 614.39 348.36 616.2"/><polygon class="cls-3" points="347.94 615.87 346.35 615.32 345.05 616.38 345.02 614.61 343.64 613.6 345.21 613.07 345.65 611.37 346.65 612.81 348.31 612.78 347.36 614.2 347.94 615.87"/></g><g><polygon class="cls-2" points="255.05 703.01 253.31 702.41 251.89 703.57 251.86 701.65 250.35 700.56 252.07 699.97 252.56 698.14 253.65 699.69 255.46 699.65 254.42 701.2 255.05 703.01"/><polygon class="cls-3" points="254.62 702.68 253.04 702.12 251.74 703.19 251.71 701.42 250.32 700.41 251.89 699.87 252.34 698.18 253.34 699.61 255 699.58 254.04 701 254.62 702.68"/></g><g><polygon class="cls-2" points="200.74 651.54 199.01 650.94 197.58 652.1 197.56 650.18 196.04 649.09 197.76 648.5 198.25 646.67 199.34 648.22 201.15 648.18 200.11 649.73 200.74 651.54"/><polygon class="cls-3" points="200.32 651.21 198.73 650.65 197.43 651.72 197.4 649.95 196.02 648.94 197.59 648.4 198.03 646.71 199.03 648.14 200.69 648.11 199.74 649.54 200.32 651.21"/></g><g><polygon class="cls-2" points="398.87 615.05 396.78 614.29 395.09 615.72 395.04 613.34 393.21 611.96 395.27 611.25 395.84 608.97 397.16 610.91 399.34 610.88 398.1 612.79 398.87 615.05"/><polygon class="cls-3" points="398.36 614.64 396.45 613.93 394.9 615.25 394.85 613.05 393.18 611.77 395.06 611.12 395.58 609.02 396.79 610.81 398.78 610.78 397.65 612.55 398.36 614.64"/></g><g><polygon class="cls-2" points="384.15 604.7 385.36 602.84 384.35 600.86 386.69 601.35 388.44 599.89 388.67 602.05 390.76 603.12 388.56 603.97 388.11 606.1 386.52 604.46 384.15 604.7"/><polygon class="cls-3" points="384.67 604.3 385.79 602.59 384.86 600.79 387.01 601.24 388.63 599.9 388.84 601.88 390.77 602.86 388.75 603.63 388.33 605.58 386.86 604.07 384.67 604.3"/></g><g><polygon class="cls-2" points="67.27 409.51 63.83 408.5 60.95 410.63 60.96 407.19 57.98 405.28 61.43 404.17 62.48 400.86 64.6 403.61 68.22 403.47 66.08 406.29 67.27 409.51"/><polygon class="cls-3" points="66.44 408.94 63.29 407.99 60.65 409.96 60.66 406.78 57.94 405.01 61.09 403.99 62.04 400.93 63.98 403.48 67.29 403.36 65.34 405.95 66.44 408.94"/></g><g><polygon class="cls-2" points="566.48 483.37 568.55 480.44 567.45 477.02 570.7 478.14 573.47 475.93 573.42 479.55 576.22 481.6 572.93 482.73 571.91 486.2 569.93 483.27 566.48 483.37"/><polygon class="cls-3" points="567.3 482.77 569.2 480.08 568.18 476.96 571.19 477.98 573.74 475.97 573.7 479.28 576.29 481.16 573.25 482.18 572.31 485.36 570.48 482.68 567.3 482.77"/></g><g><polygon class="cls-2" points="570.68 521.33 567.24 520.32 564.35 522.45 564.37 519.01 561.39 517.1 564.84 515.99 565.89 512.68 568 515.43 571.63 515.29 569.49 518.11 570.68 521.33"/><polygon class="cls-3" points="569.84 520.75 566.7 519.81 564.06 521.78 564.07 518.6 561.34 516.83 564.5 515.81 565.45 512.75 567.39 515.3 570.7 515.18 568.75 517.77 569.84 520.75"/></g><g><polygon class="cls-2" points="629.58 449.64 627.56 452.6 628.7 456 625.43 454.93 622.69 457.17 622.7 453.55 619.87 451.53 623.14 450.36 624.13 446.88 626.15 449.78 629.58 449.64"/><polygon class="cls-3" points="628.78 450.26 626.91 452.96 627.96 456.07 624.94 455.09 622.42 457.13 622.42 453.82 619.81 451.97 622.83 450.91 623.73 447.72 625.6 450.38 628.78 450.26"/></g><g><polygon class="cls-2" points="593.05 500.67 591.32 500.07 589.89 501.23 589.87 499.31 588.36 498.22 590.07 497.63 590.56 495.8 591.65 497.35 593.47 497.31 592.42 498.86 593.05 500.67"/><polygon class="cls-3" points="592.63 500.34 591.04 499.78 589.74 500.85 589.71 499.08 588.33 498.07 589.9 497.53 590.34 495.84 591.34 497.28 593 497.24 592.05 498.67 592.63 500.34"/></g><g><polygon class="cls-2" points="598.58 521.78 600.22 520.96 600.39 519.13 601.78 520.45 603.62 520.14 602.83 521.77 603.8 523.41 601.93 523.1 600.69 524.42 600.32 522.6 598.58 521.78"/><polygon class="cls-3" points="599.11 521.71 600.62 520.96 600.77 519.29 602.05 520.5 603.74 520.22 603.03 521.72 603.93 523.22 602.2 522.93 601.07 524.14 600.71 522.46 599.11 521.71"/></g><g><polygon class="cls-2" points="508.98 416.73 505.54 415.71 502.66 417.84 502.67 414.4 499.7 412.49 503.15 411.38 504.19 408.07 506.31 410.82 509.93 410.68 507.79 413.5 508.98 416.73"/><polygon class="cls-3" points="508.15 416.15 505 415.2 502.37 417.17 502.37 413.99 499.65 412.22 502.8 411.2 503.75 408.14 505.69 410.69 509.01 410.57 507.05 413.16 508.15 416.15"/></g><g><polygon class="cls-2" points="451.63 483.22 449.89 482.62 448.47 483.78 448.44 481.86 446.93 480.77 448.65 480.18 449.14 478.35 450.23 479.91 452.04 479.86 451 481.41 451.63 483.22"/><polygon class="cls-3" points="451.2 482.89 449.62 482.33 448.32 483.4 448.29 481.63 446.9 480.62 448.47 480.08 448.92 478.39 449.92 479.83 451.58 479.79 450.62 481.22 451.2 482.89"/></g><g><polygon class="cls-2" points="259.66 739.81 256.21 738.8 253.33 740.93 253.34 737.49 250.37 735.58 253.82 734.47 254.86 731.16 256.98 733.91 260.6 733.77 258.46 736.59 259.66 739.81"/><polygon class="cls-3" points="258.82 739.23 255.67 738.29 253.04 740.26 253.04 737.08 250.32 735.31 253.47 734.29 254.42 731.23 256.36 733.78 259.68 733.66 257.72 736.25 258.82 739.23"/></g><g><polygon class="cls-2" points="430.81 719.58 432.11 716.24 430.23 713.18 433.66 713.49 435.81 710.68 436.63 714.22 439.84 715.54 436.92 717.41 436.75 721.04 434.12 718.66 430.81 719.58"/><polygon class="cls-3" points="431.46 718.8 432.66 715.74 430.93 712.95 434.09 713.22 436.08 710.66 436.83 713.89 439.8 715.09 437.1 716.81 436.94 720.12 434.52 717.96 431.46 718.8"/></g><g><polygon class="cls-2" points="288.02 719.4 287.59 717.22 285.49 716.51 287.51 715.23 287.74 712.96 289.41 714.36 291.66 713.67 290.68 715.8 291.83 717.65 289.55 717.58 288.02 719.4"/><polygon class="cls-3" points="288.11 718.75 287.73 716.75 285.8 716.1 287.66 714.92 287.88 712.84 289.42 714.11 291.49 713.47 290.57 715.43 291.63 717.12 289.53 717.07 288.11 718.75"/></g><g><polygon class="cls-2" points="144.67 531.64 144.25 529.46 142.14 528.74 144.16 527.47 144.39 525.2 146.07 526.59 148.31 525.9 147.33 528.04 148.49 529.88 146.21 529.81 144.67 531.64"/><polygon class="cls-3" points="144.76 530.98 144.38 528.99 142.45 528.34 144.31 527.16 144.54 525.07 146.07 526.34 148.14 525.7 147.23 527.67 148.28 529.36 146.18 529.3 144.76 530.98"/></g><g><polygon class="cls-2" points="241.85 397.99 242.35 394.43 239.82 391.89 243.23 391.4 244.68 388.18 246.29 391.43 249.72 391.99 247.3 394.48 247.97 398.05 244.87 396.34 241.85 397.99"/><polygon class="cls-3" points="242.3 397.08 242.78 393.82 240.45 391.5 243.59 391.05 244.94 388.1 246.41 391.07 249.58 391.56 247.34 393.85 247.94 397.11 245.09 395.56 242.3 397.08"/></g><g><polygon class="cls-2" points="193.55 303.54 193.9 301.74 192.54 300.5 194.43 300.19 195.3 298.54 196.12 300.15 198.01 300.37 196.63 301.67 196.93 303.46 195.25 302.65 193.55 303.54"/><polygon class="cls-3" points="193.82 303.07 194.14 301.42 192.9 300.29 194.64 300 195.44 298.49 196.2 299.96 197.94 300.16 196.66 301.35 196.94 302.99 195.39 302.26 193.82 303.07"/></g><g><polygon class="cls-2" points="502.1 463.51 503.92 463.32 504.73 461.67 505.56 463.39 507.39 463.74 506.08 465 506.41 466.87 504.77 465.92 503.14 466.72 503.44 464.88 502.1 463.51"/><polygon class="cls-3" points="502.62 463.63 504.3 463.46 505.03 461.94 505.8 463.54 507.48 463.87 506.28 465.02 506.59 466.74 505.08 465.86 503.59 466.59 503.86 464.9 502.62 463.63"/></g><g><polygon class="cls-2" points="141.44 346.05 143.48 349 147.07 349.15 144.9 351.82 146.02 355.17 142.63 353.88 139.74 355.8 139.82 352.33 136.91 350.17 140.34 349.32 141.44 346.05"/><polygon class="cls-3" points="141.72 347.03 143.59 349.74 146.87 349.86 144.87 352.33 145.89 355.41 142.79 354.23 140.13 356.02 140.22 352.82 137.56 350.83 140.71 350.04 141.72 347.03"/></g><g><polygon class="cls-2" points="575.95 406.21 576.45 402.66 573.92 400.12 577.33 399.63 578.78 396.41 580.39 399.66 583.82 400.21 581.4 402.71 582.06 406.27 578.97 404.56 575.95 406.21"/><polygon class="cls-3" points="576.4 405.3 576.87 402.05 574.55 399.73 577.69 399.27 579.04 396.32 580.51 399.29 583.68 399.79 581.44 402.08 582.04 405.34 579.19 403.78 576.4 405.3"/></g><g><polygon class="cls-2" points="296.64 465.37 296.98 463.57 295.62 462.33 297.52 462.02 298.38 460.37 299.21 461.98 301.09 462.2 299.71 463.5 300.02 465.29 298.33 464.48 296.64 465.37"/><polygon class="cls-3" points="296.9 464.9 297.22 463.25 295.98 462.12 297.72 461.84 298.52 460.32 299.28 461.79 301.02 461.99 299.74 463.19 300.02 464.82 298.47 464.09 296.9 464.9"/></g><g><polygon class="cls-2" points="223.04 479.16 224.87 479.38 226.01 477.94 226.44 479.81 228.15 480.56 226.6 481.49 226.51 483.39 225.11 482.1 223.35 482.52 224.04 480.79 223.04 479.16"/><polygon class="cls-3" points="223.53 479.39 225.2 479.6 226.24 478.28 226.64 480 228.21 480.7 226.79 481.55 226.72 483.3 225.43 482.11 223.82 482.5 224.45 480.9 223.53 479.39"/></g><g><polygon class="cls-2" points="364.64 410.03 367.37 412.35 370.88 411.57 369.47 414.71 371.42 417.66 367.81 417.28 365.51 419.89 364.69 416.51 361.33 415.17 364.42 413.47 364.64 410.03"/><polygon class="cls-3" points="365.17 410.9 367.67 413.04 370.87 412.31 369.58 415.21 371.35 417.93 368.05 417.59 365.95 420 365.2 416.88 362.13 415.65 364.96 414.07 365.17 410.9"/></g><g><polygon class="cls-2" points="127.09 397.88 129.11 398.81 130.92 397.52 130.77 399.9 132.48 401.42 130.37 401.96 129.61 404.19 128.45 402.14 126.28 402 127.68 400.19 127.09 397.88"/><polygon class="cls-3" points="127.57 398.34 129.41 399.2 131.07 398.01 130.93 400.21 132.49 401.61 130.57 402.11 129.88 404.16 128.82 402.27 126.83 402.14 128.1 400.47 127.57 398.34"/></g><g><polygon class="cls-2" points="444.07 336.01 440.63 334.99 437.75 337.13 437.76 333.69 434.79 331.78 438.24 330.66 439.28 327.35 441.4 330.11 445.02 329.97 442.88 332.78 444.07 336.01"/><polygon class="cls-3" points="443.24 335.43 440.09 334.49 437.46 336.45 437.46 333.27 434.74 331.51 437.89 330.49 438.84 327.43 440.78 329.97 444.1 329.85 442.14 332.45 443.24 335.43"/></g><g><polygon class="cls-2" points="588.01 349.82 584.57 348.81 581.68 350.94 581.7 347.5 578.72 345.59 582.17 344.48 583.22 341.16 585.34 343.92 588.96 343.78 586.82 346.59 588.01 349.82"/><polygon class="cls-3" points="587.18 349.24 584.03 348.3 581.39 350.27 581.4 347.09 578.67 345.32 581.83 344.3 582.78 341.24 584.72 343.79 588.03 343.66 586.08 346.26 587.18 349.24"/></g><g><polygon class="cls-2" points="379.85 301.01 379.93 299.18 378.41 298.15 380.24 297.57 380.85 295.81 381.9 297.29 383.8 297.24 382.62 298.72 383.18 300.45 381.4 299.89 379.85 301.01"/><polygon class="cls-3" points="380.04 300.51 380.12 298.83 378.73 297.89 380.42 297.36 380.99 295.74 381.95 297.09 383.7 297.04 382.61 298.41 383.12 299.98 381.48 299.48 380.04 300.51"/></g><g><polygon class="cls-2" points="229.79 373.38 226.35 372.36 223.47 374.5 223.48 371.05 220.5 369.14 223.95 368.03 225 364.72 227.12 367.47 230.74 367.33 228.6 370.15 229.79 373.38"/><polygon class="cls-3" points="228.96 372.8 225.81 371.85 223.17 373.82 223.18 370.64 220.46 368.88 223.61 367.85 224.56 364.8 226.5 367.34 229.81 367.22 227.86 369.81 228.96 372.8"/></g><g><polygon class="cls-2" points="468.11 237.42 466.38 236.82 464.96 237.98 464.93 236.06 463.42 234.97 465.13 234.38 465.62 232.55 466.71 234.1 468.53 234.06 467.48 235.61 468.11 237.42"/><polygon class="cls-3" points="467.69 237.09 466.1 236.53 464.8 237.6 464.77 235.83 463.39 234.82 464.96 234.28 465.4 232.59 466.4 234.02 468.06 233.99 467.11 235.42 467.69 237.09"/></g><g><polygon class="cls-2" points="460.91 342.49 459.18 341.89 457.76 343.05 457.73 341.14 456.22 340.04 457.93 339.46 458.42 337.62 459.51 339.18 461.33 339.14 460.28 340.68 460.91 342.49"/><polygon class="cls-3" points="460.49 342.16 458.9 341.61 457.6 342.67 457.57 340.9 456.19 339.89 457.76 339.36 458.2 337.66 459.2 339.1 460.86 339.07 459.91 340.49 460.49 342.16"/></g><g><polygon class="cls-2" points="520.83 301.97 523.53 299.61 523.26 296.03 526.16 297.88 529.37 296.38 528.47 299.89 530.71 302.54 527.25 302.86 525.43 306 524.2 302.69 520.83 301.97"/><polygon class="cls-3" points="521.77 301.58 524.25 299.42 523.99 296.14 526.67 297.84 529.62 296.48 528.8 299.69 530.88 302.13 527.69 302.41 526.03 305.28 524.87 302.24 521.77 301.58"/></g><g><polygon class="cls-2" points="299.18 339.97 301.24 337.03 300.15 333.62 303.4 334.73 306.16 332.52 306.11 336.15 308.92 338.2 305.63 339.32 304.6 342.8 302.62 339.87 299.18 339.97"/><polygon class="cls-3" points="300 339.36 301.9 336.68 300.88 333.56 303.89 334.58 306.43 332.56 306.39 335.88 308.99 337.76 305.95 338.78 305.01 341.96 303.17 339.28 300 339.36"/></g><g><polygon class="cls-2" points="606.22 374.5 606.7 372.72 605.45 371.38 607.36 371.23 608.35 369.64 609.04 371.32 610.91 371.68 609.43 372.87 609.59 374.68 607.98 373.74 606.22 374.5"/><polygon class="cls-3" points="606.52 374.05 606.97 372.43 605.81 371.2 607.58 371.06 608.49 369.61 609.14 371.14 610.85 371.47 609.49 372.56 609.63 374.21 608.15 373.36 606.52 374.05"/></g><g><polygon class="cls-2" points="323.56 275.41 325.62 272.47 324.52 269.06 327.78 270.17 330.54 267.96 330.49 271.59 333.3 273.64 330.01 274.76 328.98 278.24 327 275.31 323.56 275.41"/><polygon class="cls-3" points="324.38 274.8 326.28 272.12 325.26 269 328.27 270.02 330.81 268.01 330.77 271.32 333.36 273.2 330.33 274.22 329.39 277.4 327.55 274.72 324.38 274.8"/></g></svg>